<svg width="27" height="27" viewBox="0 0 27 27" fill="none" xmlns="http://www.w3.org/2000/svg">
<g clip-path="url(#clip0_151_282)">
<path d="M3.12699 11.3489C3.18652 11.4368 3.24585 11.525 3.30555 11.6129C2.94846 11.6019 2.57278 11.5675 2.5 11.4162C2.50151 11.4087 2.50302 11.4011 2.50492 11.3936C2.70546 11.3416 2.87757 11.3384 3.12699 11.3489ZM5.03239 12.1505C5.06086 12.2375 5.09013 12.3242 5.11858 12.4108C5.05092 12.4137 4.98378 12.4167 4.91667 12.4193C4.93278 12.3308 4.94916 12.2421 4.96473 12.1535C4.98756 12.1524 5.00958 12.1516 5.03239 12.1505ZM5.72222 14.0516C5.54326 14.2149 5.4042 14.3239 5.29791 14.5699C5.14958 14.4505 5.07343 14.2127 5.02575 13.9467C4.9741 13.6577 4.95607 13.3355 4.91667 13.0948C4.92097 13.0539 4.9251 13.013 4.92925 12.9719C4.99861 12.9668 5.06798 12.9617 5.137 12.957C5.31299 13.2868 5.48962 13.6165 5.66627 13.9467C5.68497 13.9815 5.70335 14.0164 5.72222 14.0516ZM5.45369 11.6129C5.47626 11.4644 5.49907 11.3162 5.52272 11.168C5.52755 11.1383 5.53183 11.1085 5.53587 11.0789C5.55868 11.0778 5.58125 11.0767 5.60353 11.0753C5.55306 11.2546 5.50311 11.4336 5.45369 11.6129ZM5.30959 9.19353C5.62604 9.27836 5.94249 9.36337 6.25926 9.44837C6.25775 9.46249 6.25654 9.47659 6.25534 9.49053C5.81311 9.81175 5.40448 9.95442 5.18517 10.5376C5.21274 10.1046 5.24076 9.67152 5.26817 9.23849C5.28187 9.22332 5.29559 9.20851 5.30959 9.19353ZM6.19658 7.84945C6.13431 8.45339 6.22132 8.72107 6.32796 9.09569C6.49733 9.21521 6.56396 9.28634 6.50882 9.46234C6.22366 9.3231 5.92247 9.17702 5.48628 9.19962C5.47522 9.18768 5.46432 9.17575 5.45369 9.16396C5.57679 8.68716 5.81481 8.39467 5.99959 8.01703C6.06535 7.96102 6.13082 7.90515 6.19658 7.84945ZM7.56063 7.04585C7.57442 7.04506 7.58838 7.04396 7.60184 7.04301C7.47111 7.48842 7.41839 8.5166 7.1891 8.92471C6.64841 8.67151 6.65877 7.5752 7.2645 7.14211C7.36337 7.10986 7.46191 7.07779 7.56063 7.04585ZM7.05628 10.3472C7.20827 10.5101 7.35996 10.6731 7.51212 10.8362C7.33343 11.3803 6.99402 11.7901 6.85123 12.4193C6.76102 12.4128 6.6716 12.406 6.58141 12.3996C6.35185 11.7648 6.92739 10.7314 7.02507 10.2688C7.16568 10.285 7.30612 10.3008 7.44704 10.3172C7.4987 10.4474 7.55034 10.5777 7.60184 10.7081C7.42021 10.5878 7.23808 10.4673 7.05628 10.3472ZM8.30319 7.04301C8.25738 7.57072 8.37497 7.84396 8.40741 8.25376C8.13903 8.38775 7.87006 8.52207 7.60184 8.6559C7.66931 7.98274 7.80704 7.53921 7.99501 7.06561C8.09784 7.05797 8.20068 7.05048 8.30319 7.04301ZM8.61628 6.24033C8.63623 6.23888 8.65644 6.23781 8.67593 6.23656C8.64645 6.32244 8.61628 6.40833 8.58515 6.494C8.52645 6.49779 8.46658 6.50159 8.40741 6.50538C8.45256 6.45233 8.49866 6.39886 8.54498 6.3456C8.56898 6.31043 8.59251 6.27551 8.61628 6.24033ZM8.67593 8.70358C8.40776 8.86677 8.13898 9.03034 7.87036 9.19353C7.88666 8.89662 8.26906 8.49814 8.58843 8.38708C8.61304 8.40027 8.63672 8.41344 8.66163 8.42662C8.66623 8.51888 8.671 8.61133 8.67593 8.70358ZM9.21296 6.85096C9.16441 7.12357 9.11584 7.39617 9.06785 7.66878C9.01744 7.7001 8.96689 7.73109 8.91703 7.76223C8.89054 7.79153 8.86418 7.82048 8.83741 7.84945C8.69131 7.64672 8.65521 7.15052 8.68616 6.77419C8.86203 6.79995 9.03749 6.82554 9.21296 6.85096ZM9.75 6.23733C9.74885 6.24629 9.74783 6.25505 9.74668 6.26381C9.67777 6.32864 9.60929 6.39357 9.54082 6.45849C9.40415 6.5104 9.38702 6.50822 9.21296 6.50252C9.23654 6.41384 9.26143 6.32513 9.28603 6.23656C9.44055 6.23677 9.59548 6.23699 9.75 6.23733ZM10.287 5.16128C10.2071 5.34031 10.1272 5.51953 10.0474 5.69891C9.76911 5.6791 9.49104 5.65926 9.21296 5.63924C9.21448 5.62482 9.21556 5.6104 9.21711 5.59579C9.56018 5.43912 9.86069 5.25378 10.287 5.16128ZM9.85323 6.55661C9.88282 6.53946 9.91227 6.52252 9.94186 6.50538C9.96733 6.59511 9.99303 6.68456 10.0185 6.77419C9.92901 6.75695 9.83927 6.73971 9.75 6.72236C9.78423 6.66711 9.81857 6.61177 9.85323 6.55661ZM10.5555 7.35207C10.2357 7.47488 9.79357 7.44111 9.53786 7.58064C9.51925 7.47285 9.50065 7.36537 9.48148 7.25758C9.53786 7.18612 9.59309 7.11447 9.64871 7.04301C9.91961 7.14774 10.1903 7.25314 10.4606 7.35805C10.4923 7.35616 10.5238 7.35413 10.5555 7.35207ZM9.8688 7.83574C9.74717 7.84024 9.62516 7.84486 9.50408 7.84945C9.49587 7.8115 9.48931 7.77354 9.48148 7.73561C9.73806 7.63249 10.1689 7.62251 10.5555 7.58064C10.4195 7.65453 10.284 7.72842 10.1478 7.8024C10.0548 7.81342 9.96216 7.82454 9.8688 7.83574ZM10.8241 7.83567C10.5165 7.91115 10.2218 8.17862 10.0208 8.38708C9.98143 8.1443 10.4551 7.71454 10.6821 7.58064C10.7828 7.66912 10.7934 7.65983 10.8241 7.83567ZM11.3611 4.62365C11.3599 4.63809 11.3585 4.65199 11.3571 4.66624C11.2495 4.7301 11.1418 4.79413 11.0344 4.85799C10.8748 4.86942 10.7151 4.88104 10.5555 4.89247C10.5575 4.87857 10.5589 4.86415 10.5602 4.85026C10.8275 4.77461 11.0947 4.69913 11.3611 4.62365ZM10.9267 5.4301C10.8925 5.37987 10.8585 5.32967 10.8241 5.27944C11.066 5.07775 11.6013 5.18893 11.8981 5.21861C11.5742 5.28912 11.2508 5.35974 10.9267 5.4301ZM13.3296 4.63839C13.7787 4.67461 14.1887 4.77961 14.5002 4.97164C14.5278 4.96983 14.5556 4.96845 14.5833 4.96679C14.5669 4.98995 14.5499 5.01285 14.5335 5.03601C14.3902 5.07777 14.2471 5.11954 14.1041 5.16128C13.8464 5.1248 13.5877 5.08818 13.3296 5.05155C12.7632 4.97136 12.1961 4.89103 11.6296 4.81084C11.6308 4.7996 11.6326 4.78864 11.6339 4.77754C12.1836 4.65171 12.7849 4.59427 13.3296 4.63839ZM15.1161 4.4966C15.084 4.53897 15.0525 4.58148 15.0208 4.62365C14.7314 4.60324 14.4921 4.49109 14.3148 4.35484C14.5834 4.38848 14.8516 4.42245 15.1204 4.45628C15.1191 4.46984 15.1174 4.48323 15.1161 4.4966ZM16.5462 5.49035C16.6199 5.46237 16.6949 5.43438 16.769 5.40653C16.8462 5.47209 16.9226 5.53809 17 5.60365C16.9688 5.82699 16.7498 6.01071 16.5822 6.22875C16.5392 6.23126 16.4965 6.23391 16.4535 6.23656C16.1029 5.66449 15.661 5.03734 14.8857 4.81708C14.8744 4.79426 14.8633 4.77142 14.8519 4.74859C14.9567 4.70703 15.0606 4.66519 15.1652 4.62365C15.6916 4.80502 16.1305 5.08035 16.6196 5.23932C16.6822 5.38959 16.6628 5.33891 16.5462 5.49035ZM17.1943 6.76452C17.1739 6.74489 17.1539 6.72473 17.1334 6.70484C17.0886 6.70753 17.0445 6.71128 17 6.71452C17.0736 6.64488 17.1477 6.57499 17.2222 6.50538C17.212 6.59165 17.2037 6.67849 17.1943 6.76452ZM17.4311 9.73118C17.7943 10.0417 17.8874 10.4909 17.736 11.0753C17.58 10.7289 17.4249 10.3826 17.2685 10.0363C17.3202 9.95946 17.3707 9.88245 17.4217 9.80527C17.4249 9.78062 17.4275 9.75566 17.4311 9.73118ZM17.537 7.31489C17.5353 7.33153 17.5345 7.34819 17.5326 7.36483C17.4692 7.43663 17.4055 7.50863 17.3417 7.58064C17.3171 7.53297 17.2932 7.48512 17.2685 7.43745C17.3828 7.23476 17.3005 7.34361 17.4506 7.32217C17.4792 7.31967 17.5081 7.31696 17.537 7.31489ZM17.7602 7.31182C18.0438 7.41547 18.3283 7.51928 18.6112 7.62291C18.6093 7.65092 18.6061 7.67911 18.6034 7.70713C18.5319 7.75474 18.4604 7.80218 18.3887 7.84945C18.1045 7.74581 17.8211 7.64199 17.537 7.53854C17.5398 7.51035 17.5424 7.48217 17.5449 7.45415C17.6166 7.40654 17.6883 7.3591 17.7602 7.31182ZM19.4167 8.38708C19.2595 8.28361 19.1025 8.18065 18.9452 8.07772C18.9231 8.03599 18.9016 7.9941 18.8797 7.95256C19.0842 7.82866 19.0546 7.83485 19.2712 7.87603C19.3191 8.04638 19.3678 8.21655 19.4167 8.38708ZM19.6852 8.28489C19.6539 8.31896 19.6224 8.35288 19.5908 8.38708C19.4757 8.32909 19.4556 8.25479 19.4167 8.11827C19.4988 8.15325 19.5805 8.1885 19.6627 8.22374C19.6705 8.24412 19.6778 8.26452 19.6852 8.28489ZM19.4846 7.51612C19.461 7.51773 19.4395 7.51907 19.4167 7.52096C19.4903 7.45133 19.5648 7.38172 19.6401 7.31182C19.588 7.38009 19.535 7.44784 19.4846 7.51612ZM20.7592 8.86827C20.7152 8.88715 20.6715 8.90603 20.6283 8.92471C20.3879 8.79178 20.1484 8.65904 19.9094 8.52592C19.8346 8.42578 19.7597 8.32528 19.6852 8.22477C20.0577 7.95278 20.0707 8.26749 20.4218 8.43914C20.5337 8.58236 20.6466 8.7256 20.7592 8.86827ZM21.0277 9.10482C20.9383 9.07283 20.849 9.04085 20.7592 9.00886C20.8132 8.98118 20.8673 8.95294 20.9211 8.92471C20.9568 8.98493 20.9922 9.04489 21.0277 9.10482ZM20.7011 9.53825C20.7981 9.73179 20.7973 9.67671 21.0277 9.64841C20.8905 9.7656 20.7528 9.88279 20.615 9.99999C20.4843 9.75288 20.3533 9.50558 20.2222 9.25884C20.2235 9.24327 20.2252 9.22808 20.2271 9.2125C20.5167 9.15115 20.6103 9.25468 20.8932 9.29588C20.9296 9.35343 20.9664 9.41118 21.0028 9.46892C20.9028 9.49228 20.802 9.51526 20.7011 9.53825ZM20.7592 10.0205C20.9383 9.9238 21.117 9.82774 21.2962 9.73118C21.1887 9.97009 21.049 10.0935 20.8828 10.2688C20.842 10.186 20.8007 10.1032 20.7592 10.0205ZM21.8334 11.0465C21.6879 11.1707 21.5936 11.2108 21.3177 11.233C21.3915 11.2408 21.4657 11.2492 21.5392 11.2572C21.5375 11.2704 21.5362 11.283 21.5349 11.296C21.283 11.4015 21.0309 11.5071 20.7785 11.6129C20.7715 11.2931 20.7658 10.9736 20.7592 10.654C20.9328 10.451 21.1073 10.248 21.2809 10.0446C21.3132 10.0298 21.3443 10.0151 21.376 9.99999C21.5283 10.3489 21.6815 10.698 21.8334 11.0465ZM21.5647 9.57639C23.0474 9.16751 22.761 9.94491 22.0993 10.5376C21.921 10.2173 21.7423 9.89655 21.5647 9.57639ZM22.9074 9.73118C22.3612 12.2669 22.2557 12.4051 20.3239 13.4946C20.2905 13.4442 20.2562 13.394 20.2222 13.3436C20.2452 13.2492 20.2677 13.1551 20.2905 13.0608C21.5504 12.7055 22.267 12.0543 22.1923 10.5779C22.4031 10.3109 22.6133 10.044 22.8236 9.77692C22.8518 9.76168 22.8795 9.74658 22.9074 9.73118ZM22.9731 9.73118C22.9518 9.64367 22.9297 9.55594 22.9074 9.46834C22.9748 9.46623 23.042 9.46423 23.1086 9.46234C23.0635 9.55207 23.0184 9.64167 22.9731 9.73118ZM19.6852 12.1969C19.6912 12.1036 19.6976 12.0101 19.7042 11.9168C19.7093 11.8368 19.7146 11.7566 19.7203 11.6766C19.7822 11.6564 19.8446 11.6359 19.9067 11.6159C19.9158 11.615 19.9244 11.6139 19.9331 11.6129C19.9854 11.9299 19.9335 12.1652 19.8261 12.4193C19.7363 12.3626 19.7186 12.3383 19.6852 12.1969ZM18.6112 14.549C18.6127 14.5335 18.614 14.518 18.6153 14.5025C18.7331 14.2249 18.8504 13.9475 18.9676 13.6702C18.9918 13.6115 19.017 13.5529 19.042 13.4946C19.248 13.5083 19.4556 13.5221 19.662 13.5358C19.671 13.5821 19.6775 13.6266 19.681 13.6702C19.7082 13.9862 19.5974 14.2394 19.4829 14.5699C19.1923 14.5627 18.9021 14.5561 18.6112 14.549ZM18.8797 15.6281C18.8819 15.4895 18.8846 15.3507 18.8872 15.2123C18.8908 15.1772 18.8942 15.1423 18.8974 15.1076C19.0487 15.1186 19.1995 15.1298 19.3505 15.141L19.4167 15.1359C19.3129 15.3055 19.2095 15.4751 19.1065 15.6451C19.0304 15.6395 18.9552 15.6339 18.8797 15.6281ZM18.6138 13.8886C18.6227 13.884 18.6319 13.8794 18.6412 13.8746C18.7129 13.8384 18.7844 13.802 18.8561 13.7657C18.8638 13.7649 18.8716 13.7642 18.8797 13.7634C18.8684 13.8005 18.858 13.8374 18.8472 13.8747C18.8059 14.0168 18.7646 14.1591 18.7231 14.3011C18.6861 14.1747 18.6482 14.0482 18.6112 13.9216C18.6119 13.9104 18.6125 13.8995 18.6138 13.8886ZM18.1949 15.2271C18.1545 15.1871 18.1136 15.147 18.074 15.1076C18.1923 15.1886 18.1151 15.1094 18.1949 15.2271ZM17.537 14.9073C17.6877 14.8132 17.8511 14.8421 18.074 14.8455C18.0517 14.9168 18.0302 14.9888 18.0081 15.0601C17.8245 15.1326 17.7985 15.1059 17.5896 15.0848C17.5723 15.0257 17.5551 14.9665 17.537 14.9073ZM17.8659 15.9139C17.9355 16.0754 18.0049 16.237 18.074 16.3984C17.9134 16.5058 17.7525 16.613 17.5915 16.7204C17.4479 16.5265 17.6049 15.9811 17.8659 15.9139ZM17.3358 14.2269C17.3139 14.2285 17.2917 14.2298 17.2685 14.2317C17.2983 14.165 17.3273 14.0986 17.3566 14.0322C17.3504 14.0968 17.3428 14.1618 17.3358 14.2269ZM18.1091 14.3011C18.0978 14.2936 18.0857 14.2863 18.074 14.2788C18.1138 14.1973 18.1523 14.1155 18.1921 14.0338C18.2046 14.0332 18.2181 14.0327 18.2312 14.0322C18.268 14.1182 18.3057 14.2043 18.3427 14.2903C18.2647 14.2939 18.187 14.2975 18.1091 14.3011ZM19.9682 10.8064C19.9639 10.7762 19.9588 10.7457 19.9537 10.7154C20.0245 10.6305 20.0695 10.5775 20.1911 10.5376C20.2016 10.5904 20.2122 10.6435 20.2222 10.6966C20.1703 10.7308 20.1179 10.7651 20.0662 10.7996C20.0333 10.8019 20.0009 10.8042 19.9682 10.8064ZM19.9537 11.4629C19.9052 11.5262 19.8192 11.5618 19.7578 11.6129C19.7333 11.1649 19.709 10.7169 19.6852 10.2688C19.7746 10.6671 19.8641 11.0651 19.9537 11.4629ZM19.461 13.2645C19.6388 13.167 19.6637 13.2571 19.6852 13.4946C19.5056 13.4943 19.3274 13.4936 19.1482 13.4932C19.1512 13.4654 19.154 13.4379 19.1569 13.4104C19.2582 13.3616 19.3595 13.3131 19.461 13.2645ZM19.1976 12.5214C19.2378 12.4875 19.278 12.4532 19.3189 12.4193C19.3514 12.4772 19.3842 12.5352 19.4167 12.5929C19.4014 12.6247 19.3867 12.6563 19.371 12.6881C19.2969 12.6798 19.2227 12.6712 19.1482 12.6626C19.165 12.6156 19.1812 12.5685 19.1976 12.5214ZM19.1482 13.2344C19.0552 13.321 18.9616 13.408 18.8682 13.4946C18.8074 13.4846 18.7465 13.4748 18.6859 13.4647C18.6604 13.4672 18.6357 13.4696 18.6112 13.4719C18.655 13.3896 18.698 13.3077 18.7419 13.2258C18.8772 13.2287 19.0129 13.2316 19.1482 13.2344ZM18.1347 13.0817C18.023 13.0045 18.1042 13.015 18.0827 12.957C18.0998 12.9984 18.1176 13.04 18.1347 13.0817ZM18.9816 11.8817C18.6793 11.7269 18.3768 11.5721 18.074 11.4171C18.1162 10.8026 18.1927 10.0962 18.131 9.46234C18.8308 9.71336 19.4578 10.8364 18.9816 11.8817ZM18.3427 11.8817C18.5659 11.9975 18.5531 12.1046 18.8627 12.1979C18.9168 12.3972 18.8346 12.4757 18.7059 12.6881C18.5965 12.6838 18.4868 12.6793 18.377 12.6748C18.3089 12.321 18.3825 12.1176 18.3427 11.8817ZM18.404 13.6193C18.2915 13.5424 18.3721 13.5527 18.3514 13.4946C18.3685 13.5365 18.3857 13.5782 18.404 13.6193ZM20.2222 11.032C20.223 11.0155 20.2239 10.999 20.2248 10.9828C20.3056 10.9238 20.3862 10.8654 20.4669 10.8064C20.5096 11.0816 20.4935 11.5398 20.4299 11.8817C20.2871 11.7707 20.2607 11.3037 20.2222 11.032ZM20.2222 11.8814C20.2769 11.7919 20.3309 11.7024 20.3845 11.6129C20.3524 11.7005 20.3205 11.7884 20.2901 11.8766C20.2673 11.8785 20.245 11.8804 20.2222 11.8814ZM21.7879 11.0778C21.8036 11.0769 21.8185 11.0761 21.8332 11.0753C21.8461 12.1049 21.2026 12.2923 20.3565 12.6797C20.3116 12.6826 20.2671 12.6856 20.2222 12.6881C20.3977 12.3287 20.5732 11.969 20.7492 11.6095C21.0954 11.4323 21.4421 11.2554 21.7879 11.0778ZM20.1965 9.06601C20.2054 9.09252 20.2139 9.11919 20.2222 9.14586C20.1999 9.16187 20.1771 9.17771 20.155 9.19353C20.0877 9.10387 20.0207 9.01439 19.9537 8.92471C20.035 8.97188 20.116 9.01904 20.1965 9.06601ZM19.9537 9.51315C19.9573 9.49751 19.9584 9.48149 19.9611 9.46627C19.9807 9.46488 20.0005 9.46352 20.0203 9.46234C20.088 9.55222 20.155 9.64169 20.2222 9.73118C20.0669 9.65751 20.0412 9.63975 19.9537 9.51315ZM20.2222 10.2002C20.1014 10.3126 19.9803 10.4252 19.8597 10.5376C19.6001 10.1663 19.3414 9.79444 19.0821 9.42308C18.7468 9.13516 18.4098 8.84692 18.074 8.55883C18.1487 8.50164 18.2227 8.44427 18.2963 8.38708C18.784 8.59566 19.6378 8.99291 19.8097 9.48859C19.8658 9.64974 19.6731 9.78303 19.8043 9.91794C19.9599 10.0776 20.1158 9.96374 20.2222 10.2002ZM17.9559 11.8817C17.9828 11.8924 18.0106 11.903 18.0377 11.9136C18.0498 12.1718 18.0617 12.43 18.074 12.6881C18.0321 12.6786 17.9908 12.669 17.9483 12.6594C17.8304 12.5734 17.7477 12.173 17.8559 11.9992C17.8889 11.9601 17.9227 11.921 17.9559 11.8817ZM17.3611 13.2292C17.3898 13.2281 17.4194 13.2269 17.4477 13.2258C17.4773 13.2958 17.5077 13.3659 17.537 13.4361C17.4915 13.4538 17.4451 13.4715 17.3988 13.4892C17.3555 13.491 17.3126 13.4928 17.2685 13.4946C17.2998 13.4061 17.3307 13.3177 17.3611 13.2292ZM17.1156 17.5269C17.0773 17.3964 17.0383 17.2654 17 17.1345C17.1654 17.0871 17.3305 17.0396 17.4962 16.992C17.5094 16.9914 17.5236 16.9903 17.537 16.9892C17.5353 17.0013 17.5338 17.0138 17.5328 17.026C17.3938 17.1931 17.2549 17.3598 17.1156 17.5269ZM16.7315 16.4516C16.7803 16.2942 16.8162 16.2701 16.9049 16.1828C16.9296 16.1922 16.9549 16.2017 16.9796 16.2109C16.9864 16.2342 16.9932 16.2574 17 16.2805C16.9449 16.334 16.8898 16.3874 16.8349 16.4412C16.8001 16.4443 16.7658 16.4481 16.7315 16.4516ZM16.8577 16.7204C16.8158 16.6746 16.7735 16.6289 16.7315 16.5833C16.8207 16.5394 16.9109 16.4955 17 16.4516C16.9769 16.5398 16.9535 16.6279 16.9301 16.7159C16.9062 16.7174 16.8818 16.7189 16.8577 16.7204ZM16.5748 17.9405C16.5373 17.91 16.5001 17.8798 16.463 17.8493C16.4903 17.8476 16.5186 17.8459 16.5458 17.8443C16.6843 17.7384 16.822 17.6325 16.96 17.5269C16.973 17.6347 16.9868 17.7427 17 17.8502C16.8949 17.9214 16.7884 17.9933 16.6826 18.0645C16.6467 18.023 16.6111 17.9817 16.5748 17.9405ZM16.5952 21.0184C15.949 21.0457 15.5631 20.883 15.034 20.8371C14.8329 20.4441 14.6317 20.0501 14.4306 19.657C14.392 19.6176 14.3533 19.5782 14.3148 19.5387C15.3293 19.4198 15.9673 18.9362 16.7188 18.602C16.9851 18.8514 17.5875 20.1249 17.0568 20.6887C16.9307 20.8815 16.7879 20.9006 16.5952 21.0184ZM13.8194 19.6928C13.9 19.688 13.9812 19.6826 14.0626 19.6773C14.4283 19.9194 14.6774 20.3537 14.8519 20.7526C14.494 20.6508 14.1355 20.5483 13.7778 20.4459C13.8574 20.1773 13.891 19.9043 13.8194 19.6928ZM13.0479 18.6781C13.4511 18.5628 13.8538 18.4483 14.257 18.3333C14.8912 18.3947 15.5254 18.4562 16.1599 18.517C16.1712 18.549 16.1829 18.5804 16.1945 18.6117C15.6276 18.8635 14.9833 19.0757 14.3334 19.4009C13.6294 19.4562 13.46 19.1967 12.9722 19.026C12.9978 18.9097 13.0231 18.7942 13.0479 18.6781ZM12.9722 19.9446C12.9804 19.8671 12.9882 19.7894 12.9964 19.7115C13.1505 19.7003 13.3047 19.6887 13.4594 19.6773C13.4973 19.8802 13.538 19.9934 13.4808 20.2151C13.3113 20.125 13.1419 20.0346 12.9722 19.9446ZM12.4352 20.3658C12.495 20.3326 12.5553 20.3002 12.615 20.2672C12.8356 20.123 13.0019 20.3157 13.2407 20.3912C13.2089 20.4218 13.1773 20.4528 13.1456 20.4839C12.9087 20.4446 12.6719 20.405 12.4352 20.3658ZM12.9566 19.9461C12.8982 19.9203 12.8399 19.8942 12.7819 19.8675C12.7557 19.8045 12.7296 19.7405 12.7037 19.6773C12.7931 19.6829 12.8826 19.6885 12.9722 19.694C12.967 19.7782 12.9616 19.8621 12.9566 19.9461ZM12.1667 19.9461C12.2563 20.0223 12.3456 20.098 12.4352 20.1734C12.4346 20.3143 12.4224 20.2984 12.3903 20.4839C12.3158 20.3045 12.2415 20.1256 12.1667 19.9461ZM11.4702 18.9382C11.7222 18.8628 12.0584 18.8794 12.4352 18.871C12.3181 18.9607 12.2018 19.0501 12.0845 19.1398C11.8433 19.1162 11.6021 19.0931 11.3611 19.0695C11.3975 19.0258 11.434 18.9819 11.4702 18.9382ZM10.8241 5.46688C11.3225 4.99622 12.5736 5.13687 12.8872 5.43568C12.9155 5.43344 12.9441 5.43079 12.9722 5.42834C12.5549 5.81218 11.909 5.85661 11.5124 6.23656C11.2015 6.03191 10.9442 5.90084 10.8241 5.46688ZM13.5668 6.23656C13.6372 6.31548 13.7073 6.39439 13.7778 6.47318C13.5897 6.4841 13.3919 6.49518 13.195 6.5115C12.7506 6.5488 12.3117 6.6144 12.005 6.77148C11.992 6.77255 11.9786 6.77329 11.9654 6.77419C11.9428 6.73975 11.9204 6.70546 11.8981 6.67129C12.2742 6.48246 12.6844 6.33061 13.195 6.2668C13.3011 6.25363 13.4116 6.24418 13.5272 6.23925C13.5407 6.23821 13.5537 6.23716 13.5668 6.23656ZM14.6128 4.89247C14.9599 5.23691 15.4786 5.44024 15.6574 5.96775C14.9284 5.63324 13.8087 5.6381 13.2407 5.10615C13.7419 5.21156 14.1673 5.17243 14.6128 4.89247ZM14.8519 6.77419C15.1844 6.81926 15.5165 6.86431 15.8478 6.90903C15.8744 6.9072 15.9003 6.90483 15.9259 6.90264C15.6601 7.1287 15.3938 7.35458 15.1272 7.58064C15.0019 7.33158 14.9716 6.99405 14.8519 6.77419ZM16.1316 7.92392C16.0629 7.91371 15.9944 7.90321 15.9259 7.89301C16.0154 7.87848 16.1048 7.86397 16.1945 7.84945C16.1735 7.87444 16.1524 7.89945 16.1316 7.92392ZM15.9259 7.28153C16.0076 7.20216 16.0901 7.12282 16.1718 7.04301C16.1797 7.13253 16.1865 7.22206 16.1945 7.31182C16.1354 7.29893 16.076 7.28627 16.0163 7.27316C15.9865 7.27632 15.9558 7.27859 15.9259 7.28153ZM16.4131 16.1782C16.3739 16.1797 16.3343 16.1812 16.2954 16.1828C16.2611 16.1515 16.2278 16.1201 16.1945 16.0889C16.2203 16.0549 16.2458 16.0211 16.2722 15.9873C16.3354 15.9628 16.399 15.9385 16.463 15.9139C16.446 16.0019 16.4297 16.0898 16.4131 16.1782ZM16.1992 16.6683C16.2318 16.6307 16.2652 16.5934 16.298 16.5559C16.3009 16.5209 16.3037 16.486 16.3065 16.4516C16.3588 16.5336 16.4109 16.6154 16.463 16.6972C16.3731 16.7049 16.2837 16.7127 16.1945 16.7204C16.196 16.7032 16.1975 16.6857 16.1992 16.6683ZM16.0927 17.5269C16.0373 17.461 15.9818 17.3952 15.9259 17.3295C16.1046 17.3058 16.2841 17.2819 16.463 17.258L16.2071 17.5191C16.1692 17.5217 16.1309 17.5239 16.0927 17.5269ZM16.1945 18.3333C16.0158 18.3122 15.8369 18.2907 15.6574 18.2696C15.7833 18.2012 15.9099 18.133 16.036 18.0645C16.0888 18.1538 16.142 18.2434 16.1945 18.3333ZM15.8178 17.5747C15.8539 17.6087 15.8897 17.6427 15.9259 17.6767C15.7963 17.7096 15.6673 17.7428 15.5371 17.7755C15.3982 17.7821 15.2593 17.7888 15.1204 17.7957C15.3135 17.706 15.5074 17.6162 15.701 17.5269C15.7403 17.543 15.7791 17.5589 15.8178 17.5747ZM14.3148 5.96775C14.6285 5.97613 14.9601 6.05471 15.1204 6.23656C14.9038 6.21538 14.5152 6.24986 14.4169 6.08518C14.3836 6.04597 14.349 6.00676 14.3148 5.96775ZM14.5876 7.04301C14.7408 7.1754 14.7946 7.3313 14.7666 7.58064C14.5301 7.50004 14.5919 7.24439 14.5876 7.04301ZM14.8519 8.73754C14.8548 8.72226 14.857 8.707 14.8602 8.69174C15.3952 8.577 15.511 8.76029 15.267 8.92471C15.0567 8.89636 14.9602 8.81785 14.8519 8.73754ZM15.5397 15.6451C15.5786 15.6546 15.6178 15.6643 15.6574 15.6741C15.6557 15.6866 15.6544 15.6987 15.6531 15.7112C15.5648 15.7787 15.4771 15.8465 15.3889 15.9139C15.4257 15.825 15.4623 15.7364 15.4988 15.6481C15.5131 15.6468 15.5263 15.646 15.5397 15.6451ZM15.3918 9.08848C15.4582 9.03402 15.5254 8.97936 15.5918 8.92471C15.6137 9.01452 15.6356 9.10393 15.6574 9.19353C15.5678 9.17421 15.4784 9.15471 15.3889 9.13521C15.3897 9.11956 15.3908 9.10393 15.3918 9.08848ZM16.1945 16.2768C15.9782 16.3323 15.762 16.3881 15.5457 16.4438C15.4935 16.4464 15.441 16.4488 15.3889 16.4516C15.3901 16.4425 15.3918 16.4335 15.3931 16.4245C15.6367 16.3777 15.7924 16.2979 15.9359 16.1828C16.0116 16.1967 16.0877 16.2109 16.1631 16.2249C16.1735 16.2421 16.1843 16.2594 16.1945 16.2768ZM15.7312 15.6451C15.7067 15.5954 15.6818 15.5457 15.6574 15.4962C15.7188 15.4565 15.7807 15.4161 15.8424 15.3763C15.8703 15.3915 15.898 15.406 15.9259 15.4206C15.8907 15.4929 15.8552 15.565 15.8199 15.6373C15.7905 15.6399 15.7607 15.6425 15.7312 15.6451ZM14.0463 17.504C14.1527 17.4223 14.2596 17.3403 14.3658 17.258C14.6959 17.286 15.0253 17.314 15.3555 17.342C15.3667 17.3661 15.3776 17.3904 15.3889 17.4145C15.1663 17.5415 14.9434 17.6687 14.7206 17.7957C14.4729 17.7555 14.2584 17.6467 14.1301 17.4982C14.1023 17.5004 14.0743 17.5021 14.0463 17.504ZM13.5491 17.5269C13.7147 17.6166 13.8808 17.706 14.0463 17.7957C13.7778 17.7492 13.5092 17.7021 13.2407 17.6558C13.3438 17.6128 13.4462 17.5699 13.5491 17.5269ZM13.5092 18.0757C13.5081 18.0977 13.5069 18.119 13.5058 18.1407C13.4545 18.1687 13.4038 18.1967 13.3529 18.2249C13.3151 18.2292 13.2782 18.2346 13.2407 18.2389C13.2419 18.2173 13.2437 18.1958 13.2449 18.1743C13.362 18.0206 13.342 18.072 13.5092 18.0757ZM12.2431 7.13531C12.2179 7.1084 12.1924 7.08165 12.1667 7.05509C12.4331 6.91114 12.854 6.84328 13.2679 6.81009C13.6088 6.7828 13.9445 6.77867 14.1845 6.77419C14.2279 7.04288 14.2715 7.31177 14.3148 7.58064C13.9646 7.54259 13.6289 7.49754 13.2679 7.48103C12.9788 7.4681 12.6736 7.47313 12.3315 7.51495C12.3028 7.38822 12.2731 7.26169 12.2431 7.13531ZM12.638 17.9223C12.66 17.9603 12.6817 17.998 12.7037 18.0357C12.6826 18.1162 12.6616 18.1969 12.6405 18.2772C12.3932 18.2961 12.1459 18.3146 11.8981 18.3333C11.9777 18.0932 12.0963 17.978 12.2239 17.7957C12.3618 17.8379 12.4998 17.8801 12.638 17.9223ZM11.7226 16.9892C11.3854 16.9709 10.9223 16.7266 10.8241 16.4516C11.1824 16.5417 11.5399 16.6319 11.8981 16.7219C11.8397 16.811 11.7813 16.9001 11.7226 16.9892ZM12.0998 16.975C12.0324 16.98 11.9655 16.9845 11.8981 16.9892C11.9003 16.9683 11.9032 16.947 11.9051 16.9255C11.9798 16.8573 12.0536 16.7884 12.1283 16.7204C12.1186 16.8056 12.1092 16.89 12.0998 16.975ZM11.3611 7.14469C11.4702 7.11086 11.5787 7.07683 11.6878 7.04301C11.7579 7.12965 11.8282 7.21658 11.8981 7.3034C11.8243 7.30622 11.7514 7.30893 11.6775 7.31182C11.5724 7.25611 11.4665 7.20041 11.3611 7.14469ZM11.3569 18.6865C11.34 18.7451 11.3232 18.8038 11.3063 18.8626C11.28 18.8648 11.2541 18.8676 11.2282 18.871C11.1831 18.7812 11.1378 18.6913 11.0926 18.602C11.1824 18.6112 11.2713 18.6202 11.3611 18.6293C11.3597 18.6484 11.358 18.6672 11.3569 18.6865ZM11.5063 17.5269C11.7154 17.5684 11.924 17.6104 12.1326 17.6521C12.144 17.6799 12.1553 17.7079 12.1667 17.7359C12.0044 17.935 11.8424 18.134 11.6801 18.3333C11.4847 18.3049 11.2886 18.2763 11.0926 18.2479C11.2307 18.0075 11.3685 17.7671 11.5063 17.5269ZM16.1945 9.10243C16.2348 9.04377 16.2752 8.98521 16.3156 8.92656C16.3305 8.92594 16.3446 8.92533 16.3596 8.92471C16.4722 8.95267 16.5841 8.98062 16.6966 9.00858C16.7081 9.02429 16.7199 9.0402 16.7315 9.05602C16.6058 9.10172 16.4801 9.14773 16.3541 9.19353C16.3011 9.16314 16.2477 9.13273 16.1945 9.10243ZM16.9205 8.23359C16.8577 8.19515 16.7954 8.15699 16.7315 8.11827C16.9243 8.18816 16.8133 8.10994 16.9205 8.23359ZM16.86 9.46234C16.8167 9.42642 16.7741 9.39049 16.7315 9.35444C16.8209 9.30072 16.9103 9.247 17 9.19353C16.9532 9.28294 16.9064 9.37271 16.86 9.46234ZM16.7315 11.3441C16.8705 11.3781 17.01 11.4121 17.1488 11.4463C17.2611 11.4895 17.2587 11.5013 17.2685 11.6129C17.089 11.5448 16.789 11.4981 16.7315 11.3441ZM16.7722 10.6118C16.7913 10.5871 16.8109 10.5624 16.83 10.5376C16.8869 10.6273 16.9435 10.7168 17 10.8064C16.9105 10.7892 16.8209 10.7721 16.7315 10.7548C16.745 10.7073 16.7586 10.6596 16.7722 10.6118ZM11.3332 19.4564C11.3425 19.4799 11.3517 19.5034 11.3611 19.527C11.2405 19.5725 11.1197 19.6181 10.9994 19.6637C10.9411 19.6682 10.8826 19.6728 10.8241 19.6773C10.8252 19.6652 10.8262 19.6531 10.8278 19.6407C10.8689 19.577 10.9096 19.5133 10.9512 19.4498C11.1225 19.3716 11.1264 19.4226 11.3332 19.4564ZM10.5555 5.96775C10.7902 6.13912 10.8503 6.35199 10.8145 7.04301C10.6598 6.84754 10.5666 6.43455 10.5555 5.96775ZM10.7102 5.4301C10.7032 5.49543 10.6965 5.55995 10.6898 5.62472C10.645 5.62822 10.6001 5.63119 10.5555 5.6344C10.6063 5.56639 10.6584 5.49865 10.7102 5.4301ZM10.5555 5.69891C10.5487 5.76371 10.5428 5.82848 10.5352 5.89328C10.4529 5.87796 10.3693 5.86291 10.287 5.84785C10.355 5.8 10.4233 5.7516 10.4913 5.70375C10.5128 5.70188 10.5347 5.70054 10.5555 5.69891ZM10.5555 21.2902C10.5994 20.8339 10.6441 20.3778 10.6883 19.9216C11.0019 19.84 11.3159 19.7588 11.6296 19.6773C11.2997 20.199 10.9701 20.7203 10.6401 21.2411C10.6119 21.2577 10.5837 21.2743 10.5555 21.2902ZM10.6219 17.6119C10.6703 17.5833 10.7182 17.5551 10.7663 17.5269C10.8981 17.6816 10.7799 17.9037 10.6564 18.0645C10.5522 17.9683 10.5409 17.9089 10.5683 17.6911C10.5861 17.6648 10.6044 17.6381 10.6219 17.6119ZM9.75 17.4804C9.85335 17.317 9.95652 17.1532 10.0594 16.9892C10.2249 17.085 10.3905 17.1808 10.5555 17.2768C10.3856 17.5394 10.2144 17.8017 10.043 18.0645C9.88867 17.9293 9.79429 17.7298 9.75 17.4804ZM9.75 19.5856C9.91442 19.4369 10.08 19.2885 10.2446 19.1398C10.3228 19.1467 10.4012 19.1536 10.4791 19.1605C10.5045 19.2022 10.5295 19.2442 10.5555 19.286C10.5353 19.4164 10.516 19.547 10.4963 19.6773C10.2473 19.6467 9.99894 19.6163 9.75 19.5856ZM8.94443 19.2207C9.14099 19.1041 9.3384 18.9876 9.53493 18.871C9.68526 18.8942 9.83474 18.9173 9.98471 18.9409C9.99563 18.961 10.0074 18.9814 10.0185 19.0019C9.86063 19.1375 9.70307 19.273 9.54554 19.4086C9.30879 19.3843 9.15174 19.3223 9.02851 19.216C9.0001 19.2175 8.97202 19.2192 8.94443 19.2207ZM8.86607 18.7012C8.93834 18.668 9.01021 18.6351 9.08168 18.602C9.11246 18.6088 9.14342 18.6151 9.17439 18.6218C9.18725 18.6366 9.20011 18.6513 9.21296 18.6661C9.00495 18.7345 8.79558 18.8028 8.58736 18.871C8.52756 18.8503 8.46779 18.8293 8.40741 18.8088C8.56068 18.7728 8.71376 18.7371 8.86607 18.7012ZM8.13888 18.4487C8.19145 18.3228 8.24432 18.1969 8.29659 18.0706C8.59094 18.0329 8.65997 18.1764 8.88015 18.2668C8.90102 18.2985 8.92281 18.3306 8.94443 18.3626C8.83488 18.4369 8.72518 18.5107 8.61564 18.5849C8.52666 18.5906 8.43782 18.5964 8.34869 18.602C8.27891 18.551 8.20928 18.5001 8.13888 18.4487ZM7.60184 19.552C7.73199 19.3251 7.86232 19.0978 7.99246 18.871C8.25202 18.8706 8.28327 18.8919 8.39029 19.0273C8.43726 19.1058 8.39676 19.0638 8.29306 19.0813C8.28474 19.1596 8.27734 19.2375 8.26902 19.3159C8.40509 19.3368 8.5406 19.3572 8.67593 19.3785C8.59624 19.5746 8.58349 19.5488 8.46222 19.6736C8.06254 19.6951 7.88155 19.6194 7.60184 19.552ZM7.14951 18.602C7.37703 18.67 7.60437 18.7376 7.83226 18.8051C7.84477 18.8318 7.85728 18.8587 7.87036 18.8854C7.72399 19.0598 7.57801 19.2343 7.43202 19.4086C7.22005 19.3398 7.00788 19.2711 6.79629 19.2025C6.91403 19.0027 7.03196 18.8025 7.14951 18.602ZM4.51918 17.8756C4.52218 17.8487 4.52482 17.8222 4.52797 17.7957C4.65486 17.8923 4.78209 17.989 4.90884 18.0856C4.91995 18.111 4.93089 18.1366 4.94184 18.1622C4.1491 18.7658 5.36103 20.7353 6.7403 19.4595C6.93803 19.538 7.13527 19.6163 7.33333 19.6945C7.10508 20.0963 6.71343 20.2545 6.30089 20.4809C5.31457 20.5621 3.93445 18.9722 4.51918 17.8756ZM5.43909 18.151C5.44413 18.2117 5.44879 18.2722 5.45369 18.3333C5.38035 18.2787 5.30746 18.2246 5.23459 18.17C5.21789 18.1349 5.20164 18.0996 5.18517 18.0645C5.26985 18.0934 5.35442 18.1222 5.43909 18.151ZM6.79629 19.2926C6.63277 19.4175 6.46893 19.5429 6.30509 19.6672C5.33963 19.7675 4.9482 19.1075 4.91667 18.2959C4.97958 18.2208 5.04182 18.1459 5.10458 18.0706C5.1323 18.0688 5.16002 18.0663 5.18757 18.0645C5.67412 18.4429 6.1039 19.0199 6.76393 19.2109C6.77438 19.2382 6.78533 19.2653 6.79629 19.2926ZM5.86056 15.3763C5.77261 15.3128 5.76707 15.2826 5.72222 15.1763C5.78386 14.9467 5.84503 14.7166 5.90636 14.4869C5.97798 14.425 6.04961 14.3627 6.12107 14.3011C6.16718 14.3679 6.21362 14.4343 6.25926 14.5008C6.12646 14.7928 5.99351 15.0844 5.86056 15.3763ZM5.72222 15.6089C5.86345 15.2792 6.00468 14.9495 6.14624 14.6201C6.17545 14.6031 6.20432 14.5866 6.23301 14.5699C6.42787 14.9096 6.71034 15.0635 6.79629 15.5246C6.58379 15.7439 6.37095 15.9634 6.15845 16.1828C5.96062 16.0398 5.82269 15.853 5.72222 15.6089ZM6.52777 16.4307C6.70755 16.2583 6.88682 16.0861 7.0666 15.9139C7.15517 16.093 7.24425 16.2721 7.33333 16.4516C7.06496 16.4443 6.79661 16.4376 6.52777 16.4307ZM7.87036 10.999C7.61574 11.5359 7.27748 11.9005 7.07458 12.4193C6.98632 11.9476 7.51987 11.2695 7.69194 10.8529C7.71905 10.8373 7.74647 10.8221 7.77356 10.8064C7.80594 10.8706 7.838 10.9347 7.87036 10.999ZM7.87036 9.52062C8.26925 9.39843 8.53737 9.17472 8.82354 8.92471C8.86369 9.0444 8.9043 9.16428 8.94443 9.28395C8.83128 9.43283 8.71857 9.58229 8.60555 9.73118C8.36029 9.66117 8.11549 9.59079 7.87036 9.52062ZM9.21296 9.54772C9.16454 9.6088 9.11589 9.6701 9.06748 9.73118C9.02662 9.72451 8.98553 9.7175 8.94443 9.71072L8.94747 9.68159C9.02891 9.60842 9.11035 9.5355 9.19127 9.46234C9.1982 9.49088 9.2059 9.51931 9.21296 9.54772ZM9.00134 8.38981C9.01545 8.38876 9.02957 8.388 9.0437 8.38708C9.10001 8.50451 9.15665 8.62192 9.21296 8.73903C9.19152 8.80123 9.16974 8.86298 9.14865 8.92471C8.90335 8.79774 8.91322 8.64725 9.00134 8.38981ZM8.9517 16.1828C9.03385 16.2411 9.11655 16.2994 9.19954 16.358C9.11414 16.3209 9.02955 16.2841 8.94443 16.2478C8.94632 16.2258 8.94873 16.204 8.9517 16.1828ZM8.94743 16.4516C9.03606 16.4894 9.1245 16.5273 9.21296 16.5654C9.21135 16.576 9.2099 16.5869 9.20862 16.5979C9.01932 16.7282 8.82892 16.8588 8.6393 16.9892C8.47543 16.9173 8.45533 16.7725 8.40741 16.6138C8.40869 16.6027 8.41029 16.5919 8.41158 16.5811C8.59026 16.5377 8.76908 16.4948 8.94743 16.4516ZM8.15226 15.9139C8.23749 15.9479 8.32218 15.9815 8.40741 16.0153C8.3618 16.0416 8.31672 16.068 8.27095 16.0941C8.22674 16.0992 8.1829 16.1037 8.13888 16.1085C8.14294 16.0441 8.14751 15.9791 8.15226 15.9139ZM8.13888 10.5376C8.46137 10.6281 8.35933 10.5679 8.37357 10.8064C8.22508 10.7212 8.21487 10.6802 8.13888 10.5376ZM8.13888 15.3395C8.14613 15.262 8.15381 15.1851 8.16126 15.1076C8.28631 15.1933 8.32908 15.2445 8.40741 15.3763C8.31746 15.3638 8.22817 15.3515 8.13888 15.3395ZM8.67593 11.9824C8.57519 12.1108 8.57938 12.0751 8.40741 12.1505C8.44662 12.0611 8.48584 11.9713 8.5253 11.8817C8.57566 11.9154 8.62602 11.9488 8.67593 11.9824ZM8.67593 10.9016C8.6197 10.9594 8.56366 11.0173 8.50743 11.0753C8.33838 10.9807 8.4185 11.0184 8.49424 10.8445C8.52771 10.832 8.56117 10.8191 8.59502 10.8064C8.62238 10.8382 8.64934 10.8698 8.67593 10.9016ZM8.65444 10.4441C8.57226 10.3857 8.48956 10.3274 8.40741 10.2688C8.59777 10.3406 8.55375 10.2967 8.65444 10.4441ZM8.13888 15.3763C8.22845 15.4469 8.3177 15.5173 8.40741 15.5876C8.26991 15.584 8.19696 15.5551 8.13888 15.3763ZM8.94443 15.3662C8.90824 15.3696 8.8716 15.373 8.83511 15.3763C8.80386 15.3192 8.77246 15.2622 8.7412 15.2049C8.71938 15.177 8.69744 15.149 8.67593 15.121C8.72433 15.1163 8.77274 15.1118 8.82129 15.1076C8.8623 15.1938 8.90315 15.28 8.94443 15.3662ZM8.79622 10.3887C8.7562 10.3484 8.71567 10.3086 8.67593 10.2688C8.79407 10.3502 8.71567 10.2707 8.79622 10.3887ZM8.81307 14.8156C8.76757 14.7217 8.72155 14.6281 8.67593 14.5342C8.69517 14.4571 8.71468 14.3804 8.73406 14.3033C8.74523 14.3027 8.75654 14.3019 8.76799 14.3011C8.82654 14.4801 8.88575 14.6593 8.94443 14.8386C8.90109 14.8309 8.85735 14.8233 8.81307 14.8156ZM8.10943 17.9433C8.11937 17.9554 8.12907 17.9672 8.13888 17.9793C8.10681 18.0974 8.07475 18.2156 8.04267 18.3333C7.84504 18.2554 7.64282 18.0536 7.60184 17.7957C7.77135 17.8448 7.94033 17.8938 8.10943 17.9433ZM7.33333 18.3333C7.42307 18.4115 7.5121 18.49 7.60184 18.5684C7.43007 18.4941 7.41956 18.4973 7.33333 18.3333ZM7.79679 15.9505C7.80726 16.028 7.81881 16.1055 7.82928 16.1828C7.7533 16.093 7.67784 16.0035 7.60184 15.9139C7.66656 15.926 7.73128 15.9384 7.79679 15.9505ZM7.5314 17.2073C7.46519 17.0452 7.399 16.8827 7.33333 16.7204C7.5677 16.8097 7.75152 17.0753 7.87036 17.258C7.7576 17.241 7.6445 17.2243 7.5314 17.2073ZM7.74233 12.4214C7.76435 12.4205 7.78717 12.4199 7.80919 12.4193C7.74367 12.5089 7.67869 12.5985 7.61291 12.6881C7.58042 12.6219 7.61961 12.5581 7.7289 12.4803C7.73294 12.4605 7.73777 12.441 7.74233 12.4214ZM7.60184 14.7319C7.58408 14.7676 7.56595 14.8029 7.548 14.8386C7.49651 14.7992 7.4454 14.76 7.39369 14.7204C7.3736 14.6778 7.35333 14.6351 7.33333 14.5926C7.40362 14.5851 7.47353 14.5774 7.5438 14.5699C7.56334 14.6238 7.58259 14.6778 7.60184 14.7319ZM5.72222 16.9892C6.26054 17.3351 7.17444 17.6556 7.33333 18.3333C6.70945 18.0404 6.10131 17.5131 5.72222 16.9892ZM7.11763 16.7296C7.18948 16.8162 7.26161 16.9027 7.33333 16.9892C7.15442 16.8995 6.9752 16.8101 6.79629 16.7204C6.9035 16.7234 7.01085 16.7266 7.11763 16.7296ZM9.08393 17.5269C8.94804 17.3921 8.81197 17.2567 8.67593 17.1216C8.91356 16.8982 9.15188 16.6752 9.38951 16.4516C9.42023 16.6972 9.45093 16.943 9.48148 17.1889C9.34902 17.3015 9.21654 17.4143 9.08393 17.5269ZM9.48148 17.9761C9.50555 17.9177 9.52889 17.8592 9.55278 17.8007C9.58422 17.7989 9.61545 17.7972 9.64745 17.7957C9.68188 17.8852 9.71575 17.9748 9.75 18.0645C9.66062 18.035 9.57086 18.0056 9.48148 17.9761ZM9.84344 16.9892C9.81229 16.8995 9.78142 16.8102 9.75 16.7204C9.81551 16.7324 9.88076 16.7441 9.94467 16.7561C9.91137 16.8336 9.87727 16.9117 9.84344 16.9892ZM9.48148 7.9373C9.48231 7.92951 9.48304 7.92172 9.48418 7.91374C9.57295 7.8923 9.66122 7.87097 9.75 7.84945C9.68807 7.93905 9.62603 8.02867 9.56431 8.11827C9.53674 8.05797 9.50904 7.99759 9.48148 7.9373ZM6.77427 13.4946C6.69183 13.3151 6.60967 13.1361 6.52777 12.957C6.84327 13.0253 6.7928 13.2472 6.77427 13.4946ZM6.11631 13.7634C5.88705 13.6058 5.7402 13.2932 5.72222 12.957C6.19322 13.0672 6.16777 13.2503 6.25926 13.6748C6.21154 13.7042 6.16403 13.7339 6.11631 13.7634ZM5.83881 12.3607C5.49651 12.0412 5.99547 10.7611 6.2149 10.4669C6.33026 10.3222 6.47648 10.3248 6.66924 10.2688C6.71176 10.2795 6.75359 10.2906 6.79629 10.3014C6.47371 10.8657 6.25551 11.6335 6.17846 12.4193C6.0652 12.3996 5.95225 12.3802 5.83881 12.3607ZM5.33774 16.7204C5.3925 16.8112 5.44726 16.902 5.50202 16.9931C5.45339 17.1057 5.40416 17.2184 5.35507 17.3312C5.32671 17.3607 5.29878 17.39 5.27072 17.4195C5.3905 17.4363 5.41735 17.334 5.59787 17.1894C5.94528 17.7475 6.47782 18.2798 7.06481 18.5834C6.95805 18.7686 6.85069 18.9541 6.7441 19.1398C6.42046 18.9339 6.09789 18.7285 5.77443 18.5227C5.66321 18.3196 5.8166 18.0865 5.63806 17.9623C5.47686 17.8497 5.26827 18.0126 5.104 17.9636C4.95214 17.826 4.79998 17.6883 4.64814 17.5506C4.78174 17.2553 4.91072 16.9656 5.17608 16.8147C5.23023 16.7832 5.28376 16.7516 5.33774 16.7204ZM4.40919 13.7563C4.44317 13.4919 4.50119 13.2187 4.56682 12.9601C4.57912 12.9591 4.59114 12.9581 4.60344 12.957C4.65003 13.2235 4.69662 13.4899 4.74349 13.7563C4.76796 13.8956 4.79198 14.0349 4.81645 14.174C5.02871 14.7538 5.24114 15.3341 5.45369 15.9139C4.94405 15.6384 4.62805 15.002 4.67332 14.1459C4.55086 14.4222 4.6528 14.8567 4.69309 15.0997C4.37917 14.8377 4.33886 14.3162 4.40919 13.7563ZM3.94371 14.0322C3.8972 13.9376 3.8669 13.8327 3.85267 13.7084C3.83752 13.5807 3.83967 13.4329 3.85758 13.2563C3.87271 13.2239 3.88816 13.192 3.90362 13.16C3.97294 13.0924 4.04209 13.0248 4.1111 12.957C4.0721 13.2074 4.03308 13.458 3.9939 13.7084C3.97738 13.8165 3.96039 13.9242 3.94371 14.0322ZM22.6389 16.7204C22.46 16.6524 22.2812 16.5842 22.1019 16.5159C22.2757 16.4946 22.4493 16.4729 22.6231 16.4516C22.6282 16.5411 22.6334 16.6309 22.6389 16.7204ZM8.42861 21.0956C8.47533 21.0707 8.52286 21.0459 8.56958 21.0214C8.51615 21.1105 8.46111 21.2007 8.40741 21.2898C8.41439 21.2252 8.42163 21.1602 8.42861 21.0956ZM4.37962 11.8817C4.30358 11.8743 4.22724 11.867 4.15057 11.8596C3.86643 11.768 3.59828 11.4401 3.57407 11.0753C4.01013 11.114 4.15755 11.3178 4.37311 11.5668C4.37528 11.6716 4.37775 11.7766 4.37962 11.8817ZM4.34794 11.8593C4.37917 11.2793 3.93058 10.9172 3.34829 10.9327C3.44816 10.1173 4.1655 9.70086 4.80519 9.42698C4.84638 9.42398 4.88693 9.42097 4.92812 9.41796C4.82089 10.441 4.90229 11.3221 4.51501 12.207C4.22909 12.8592 3.21553 12.847 3.27096 13.8521C3.27226 13.8794 3.27438 13.9078 3.27766 13.9367C3.42218 15.2742 4.89527 15.5463 5.09911 16.7225C2.91572 17.8187 5.57713 22.4277 7.30426 19.7205C7.61323 19.7644 7.88919 19.903 8.27385 19.7694C8.45252 19.6717 8.48799 19.5925 8.55747 19.3889C8.76297 19.4939 8.96894 19.5989 9.17444 19.7039C9.18524 19.7294 9.19601 19.7554 9.20714 19.7814C8.64117 20.2145 8.24245 20.8089 7.63531 21.2158C7.65427 21.1607 7.67373 21.1055 7.69318 21.0511C7.63988 21.042 7.58691 21.0322 7.53363 21.0229C7.50517 21.0384 7.47608 21.0541 7.44747 21.0694C7.42098 21.1908 7.39515 21.3132 7.36833 21.4348C7.71492 21.784 8.76655 20.5192 9.07455 20.2707C8.90013 20.8722 8.47018 21.1813 8.23134 21.7315C8.25553 21.7568 8.28038 21.7818 8.30491 21.8064C8.75839 21.4856 9.31454 20.5778 9.39906 19.8869C9.62514 19.9239 9.85155 19.9607 10.0781 19.9978C9.22675 21.1348 7.03992 23.6345 5.89051 24.3017C6.06461 23.7591 6.34415 23.3448 6.48442 22.8991C6.4568 22.901 6.4295 22.9027 6.40268 22.9049C6.37815 22.8797 6.35347 22.8548 6.32879 22.8302C6.0494 23.3743 5.58791 23.7557 5.50568 24.4894C5.56404 24.579 5.62632 24.6272 5.6891 24.676C7.05643 24.4507 9.33874 21.0578 10.4298 20.1316C10.1347 23.0579 8.54636 23.5147 7.16891 25.2879C8.42048 24.6713 9.17999 23.0982 10.2514 22.2241C10.1329 23.4475 9.83833 26.1814 9.09646 26.6667C9.13733 26.6633 9.1782 26.6607 9.21939 26.6577C10.0504 26.1472 10.0992 24.0482 10.3762 22.9748C10.4154 22.5984 10.455 22.2226 10.4942 21.847C10.89 21.2977 11.2859 20.7487 11.6817 20.2005C11.7106 20.1852 11.7391 20.1693 11.7678 20.1544C11.9006 20.5658 12.5019 21.0124 13.1533 20.8925C13.3093 20.8279 13.4649 20.7635 13.62 20.699C14.0117 20.8434 14.4026 20.9878 14.7933 21.1325C14.9472 22.7986 14.8882 23.7329 13.82 25.0021C14.9114 24.4513 15.3125 22.3279 14.9491 21.2015C17.4872 21.4917 17.3856 20.6456 16.9037 18.8198C17.0528 18.8219 17.2015 18.8245 17.3504 18.8273C17.2685 18.7051 17.0456 18.7959 16.8756 18.7022C16.7984 18.653 16.8137 18.6622 16.7654 18.5899C17.3694 17.9175 18.8221 18.5854 18.518 19.7014C18.935 18.7756 18.0121 17.9533 17.1226 18.2839C17.5024 17.8396 17.9625 17.4743 18.203 16.8857C18.2321 16.8702 18.2604 16.8547 18.2895 16.8394C18.9853 17.5615 19.6822 18.2839 20.3784 19.0059C20.419 19.0031 20.4603 18.9999 20.5015 18.9971C20.5332 18.9547 20.5643 18.9125 20.5956 18.8701C19.9326 18.0925 19.2684 17.314 18.6051 16.5364C18.6761 16.5043 18.747 16.4725 18.8187 16.4408C18.9336 16.3328 19.0601 16.2972 19.1867 16.314C19.1497 16.2959 19.1142 16.2783 19.0808 16.2617C20.1484 16.3678 21.5102 17.2456 22.6234 16.9627C22.7263 16.7865 22.7308 16.6909 22.6691 16.5196C23.8548 16.5491 25.988 16.1573 26.6667 15.5881C24.843 15.9667 22.7874 16.0951 21.1119 15.8735C20.6167 15.8166 20.1222 15.7592 19.6273 15.7021C19.5999 15.7041 19.5724 15.706 19.5446 15.7081C19.6776 15.472 19.8107 15.2355 19.9439 14.9992C21.1681 14.977 24.3766 14.9464 25.0255 14.1885C24.9777 14.1255 24.93 14.062 24.8826 13.999C24.696 13.9726 24.5088 13.9464 24.3226 13.9198C24.2743 13.9902 24.2677 14.0574 24.2599 14.1247C24.4079 14.1404 24.5549 14.1561 24.7022 14.1722C23.7405 14.4114 21.0617 14.9163 20.1867 14.6215C20.0946 14.5115 20.1628 14.1285 20.1667 13.8525C20.168 13.7978 20.1665 13.7472 20.1609 13.7039C21.4179 13.3328 22.3514 12.4981 22.734 11.237C22.9529 10.516 22.8078 9.56769 23.2806 9.11803C23.5827 9.14409 23.6437 9.26975 23.8654 9.3553C23.7478 9.19422 23.5807 9.10499 23.371 9.03146C23.2393 9.12104 23.1084 9.2106 22.9774 9.29999C22.6174 9.43752 22.2406 9.07774 21.6306 9.3583C21.1351 8.93973 20.8551 8.27767 20.1858 8.02452C20.1628 7.98608 20.1394 7.94781 20.1165 7.90956C20.3879 7.64954 20.6583 7.39003 20.9294 7.13036C20.6628 7.34993 20.392 7.60961 20.1209 7.86912C19.9401 7.78907 19.7582 7.70886 19.5767 7.62916C19.5665 7.60292 19.5556 7.57735 19.5446 7.55146C20.1643 7.11783 20.7149 6.9569 21.4207 7.09476C21.454 7.15877 21.4887 7.22293 21.5225 7.28709C21.4894 7.34307 21.4604 7.35812 21.4321 7.37366C21.3532 7.35276 21.2734 7.33205 21.1945 7.31083C21.297 7.37032 21.4036 7.38921 21.5098 7.40809C21.5394 7.37901 21.5698 7.35026 21.5994 7.32152C21.604 7.28108 21.6083 7.24098 21.6128 7.20054C21.4587 7.06486 21.4117 6.96727 21.1094 6.95741C21.1575 6.88706 21.2056 6.81704 21.2539 6.74703C20.9073 6.9818 20.2054 7.04446 19.8607 7.2485C20.1258 7.04247 20.3911 6.83643 20.6564 6.63056C20.6879 6.58846 20.7194 6.546 20.7511 6.5039C20.2603 6.79265 19.7699 7.08189 19.2793 7.37098C18.9652 7.34925 18.631 7.20439 18.4615 7.0306C18.4344 7.0326 18.4074 7.0346 18.3795 7.03662C18.9625 6.64761 19.5446 6.2586 20.1267 5.86974C20.1173 5.83031 20.108 5.79105 20.0988 5.7516C19.4356 6.13327 18.7729 6.51475 18.1104 6.89659C17.8987 6.84511 17.6875 6.79399 17.4762 6.74251C17.4956 6.55471 17.5155 6.36671 17.5349 6.17872C19.0529 5.00166 20.5711 3.8246 22.0887 2.64772C22.1157 2.64555 22.143 2.6437 22.1706 2.64187C22.1485 2.59006 22.1268 2.53826 22.1055 2.48647C21.9364 2.40675 21.2436 2.96203 20.9819 3.1283C19.9739 3.76713 19.0823 4.56185 18.0904 5.13868C18.4998 4.62518 19.2497 4.11385 19.3731 3.36557C19.3065 3.35722 19.2391 3.34871 19.1723 3.34036C19.0689 3.42775 18.9652 3.51546 18.8606 3.60303C18.9742 3.55474 19.0876 3.50661 19.2006 3.45816C18.981 4.11619 17.9864 5.29375 17.4264 5.6669C17.4045 5.61492 17.383 5.56363 17.3613 5.51165C17.726 4.90474 18.0855 4.09013 17.9166 3.31195C17.8143 3.25279 17.7121 3.19364 17.6098 3.13432C17.5007 3.1425 17.3919 3.15053 17.2824 3.15838C17.4923 3.24043 17.6347 3.26064 17.7889 3.36124C17.8877 4.1157 17.5113 4.62569 17.309 5.2356C17.2798 5.25097 17.2515 5.26635 17.2228 5.28206C17.0873 5.03575 17.096 4.91645 16.8188 4.87149C16.8105 4.81886 16.8026 4.76605 16.7947 4.71325C16.8575 4.62853 16.9207 4.54431 16.9839 4.45975C17.0275 4.42968 17.0711 4.39976 17.1151 4.37002C17.1594 4.45208 17.1613 4.42316 17.1756 4.56553C17.2236 4.49552 17.2304 4.42834 17.2371 4.361C17.1862 4.33827 17.1339 4.31539 17.0824 4.29266C16.9454 4.4357 16.8088 4.57907 16.6722 4.72227C16.3286 4.49552 15.9518 4.2579 15.4703 4.17034C15.7425 3.61005 16.5731 2.71072 16.1439 2.00187C15.6214 1.1398 13.8357 2.13371 13.1819 2.81748C13.0943 2.90973 13.0263 2.99629 12.9853 3.07216C13.0269 3.03872 13.0944 2.98626 13.1819 2.9221C13.827 2.44653 15.5457 1.30958 15.918 2.21844C16.3086 2.72592 15.5605 3.70195 15.3561 4.09865C14.66 4.02896 13.9318 3.96314 13.1829 3.97784C12.4268 3.99304 11.6488 4.0898 10.8615 4.34662C10.4809 4.47079 8.86154 5.42877 8.79975 5.41674C8.55371 5.18179 8.30719 4.94619 8.06084 4.71092C7.54621 4.45542 7.03092 4.19975 6.51614 3.94426C6.51303 3.97098 6.51058 3.99773 6.50797 4.0248C6.47773 4.05371 6.44731 4.08244 6.41755 4.11135C7.07719 4.66278 7.73764 5.21455 8.39693 5.76615C8.29623 5.82697 8.19538 5.88747 8.09435 5.94828C7.28024 5.33871 6.71902 4.96858 5.507 4.65761C5.43899 4.66262 5.37065 4.66745 5.30265 4.67248C6.01049 5.15389 6.72294 5.59504 7.43504 6.03618C7.4826 6.09935 7.53002 6.1625 7.57776 6.22584C7.06934 6.43789 6.85437 6.8767 6.42459 7.14958C5.75352 6.83275 5.13264 6.54667 4.31951 6.30337C4.30052 6.35819 4.28092 6.41299 4.26196 6.4678C4.76987 6.79048 5.27763 7.11331 5.78556 7.43616C5.81286 7.43414 5.84017 7.43215 5.8673 7.4303C5.77984 7.48979 5.69238 7.54961 5.60525 7.60927C5.48345 8.01281 5.24559 8.48019 5.04796 9.04935C4.28877 9.65977 3.30447 9.62316 3.15179 10.8671C2.90966 10.9327 2.73752 10.9535 2.51683 11.1132C2.51111 11.167 2.50572 11.2208 2.5 11.2745C2.63846 11.4669 3.87207 11.982 4.16714 12.0324C4.22778 11.9746 4.28794 11.9168 4.34794 11.8593ZM13.3568 3.25922C13.3946 3.26607 13.4314 3.27272 13.469 3.27958C13.4187 3.27358 13.3684 3.26727 13.318 3.26118C13.2922 3.26249 13.2665 3.26368 13.2407 3.26499C13.3594 3.04569 13.7094 2.99171 14.0463 3.0162C14.0386 3.06865 14.031 3.12123 14.0226 3.17356C13.8035 3.18467 13.5838 3.19566 13.3647 3.20655C13.3623 3.22418 13.3594 3.24159 13.3568 3.25922ZM13.8271 3.54839C13.9328 3.51397 14.0386 3.47971 14.1439 3.44546C14.2806 3.22082 14.3586 2.98282 14.2887 2.76444C13.9635 2.70086 13.7753 2.77958 13.4701 2.9059C13.4149 2.99519 13.3595 3.08493 13.3049 3.17436C13.2836 3.20879 13.2619 3.24321 13.2407 3.2778C13.2619 3.30119 13.2824 3.3216 13.3049 3.34006C13.4078 3.42437 13.5325 3.45353 13.7617 3.43492C13.824 3.54064 13.752 3.4937 13.6383 3.52351C13.7011 3.53158 13.764 3.54016 13.8271 3.54839ZM21.6366 5.96775C21.523 5.98883 21.4094 6.00992 21.2962 6.03069C21.3662 6.02608 21.4364 6.0213 21.5058 6.0162C21.5858 6.04999 21.6657 6.08409 21.7449 6.11771C21.624 6.33677 21.503 6.55547 21.3821 6.77419C21.5685 6.5568 21.7545 6.4022 21.8334 6.07206C21.7674 6.03712 21.7021 6.00251 21.6366 5.96775ZM19.6852 16.4516C19.6003 16.3037 19.508 16.2056 19.4167 16.1828C19.4984 16.2587 19.5924 16.3476 19.6852 16.4516ZM18.6112 19.6773C18.5217 19.7291 18.4319 19.7802 18.3427 19.8311C18.4114 19.8247 18.48 19.8182 18.5489 19.812C18.57 19.7668 18.5908 19.7223 18.6112 19.6773ZM19.6852 16.4516C19.9578 16.7565 20.1631 17.3394 20.1039 17.7957C20.4133 17.1341 20.0601 16.7215 19.6852 16.4516Z" fill="#E8F1FB"/>
</g>
<defs>
<clipPath id="clip0_151_282">
<rect width="26.6667" height="26.6667" fill="white"/>
</clipPath>
</defs>
</svg>
