<svg width="80" height="53" viewBox="0 0 80 53" fill="none" xmlns="http://www.w3.org/2000/svg">
<path d="M15.0621 4.90947L10.4276 0.0557884H4.63448L1.43448 3.45895L0 4.85368V12.9432L4.57931 18.1316H10.4828L15.0069 13.0547V4.90947H15.0621ZM3.42069 14.7842V3.34737H11.7517V14.7842H3.42069Z" fill="currentColor"/>
<path d="M32 5.02105L27.7517 0.0557884H22.2897L19.3104 3.51474L18.0966 4.90947V18.02H21.3517V12.7758H28.6897V18.02H31.9448V14.561L29.4621 12.1063L32 9.87474V5.02105ZM21.3517 3.62632H28.6897V9.81894H21.3517V3.62632Z" fill="currentColor"/>
<path d="M74.7035 0.111578H68.469V3.45895H65.1586V18.0758H68.469V3.45895H76.138V18.0758H79.4483V5.13263L74.7035 0.111578Z" fill="currentColor"/>
<path d="M62.5656 4.85368L57.9311 0H52.1931L48.9931 3.40316L47.5587 4.79789V12.8874L52.138 18.0758H58.0414L62.5656 12.9989V4.85368ZM50.9242 14.7842V3.34737H59.2552V14.7842H50.9242Z" fill="currentColor"/>
<path d="M42.5931 14.6726V3.45895L39.3379 0.111578H36.1379V3.34737H39.3379V14.6726H36.1379V18.02H45.7931V14.6726H42.5931Z" fill="currentColor"/>
<path d="M0.110347 49.6526V52.1632H79.5035V49.6526H0.110347Z" fill="currentColor"/>
<path d="M41.3242 27.9505L36.6345 23.1526H30.8966L27.6966 26.5558L26.2621 27.9505V36.04L30.8414 41.2284H36.7448L41.269 36.1516V27.9505H41.3242ZM29.6276 37.8811V26.4442H37.9586V37.8811H29.6276Z" fill="currentColor"/>
<path d="M57.7655 23.0968V26.4442H62.5104V41.1168H65.8759V29.1779L63.5035 26.5H70.5656V23.0968H57.7655Z" fill="currentColor"/>
<path d="M54.5655 26.3326V23.0968H48.3311L44.1931 27.7832V41.0611H47.3931V33.2505H54.5655V29.959H47.3931V26.3326H54.5655Z" fill="currentColor"/>
<path d="M18.869 30.3495H12.2483V26.3884H22.4V23.0968H13.5724L8.99311 27.1695V29.5684L12.1931 32.4137L13.4621 33.6411H20.1931V37.8253H10.0414V41.1168H18.869L23.3931 36.9884V34.5895" fill="currentColor"/>
<path d="M57.7655 23.1526V26.5H62.5104V41.1726H65.8759V29.2337L63.5035 26.5558H70.5656V23.1526H57.7655Z" fill="currentColor"/>
</svg>
