<svg width="27" height="27" viewBox="0 0 27 27" fill="none" xmlns="http://www.w3.org/2000/svg">
<path d="M15.0411 13.2046H6.81994V9.81671H15.0411C15.5213 9.81671 15.8553 9.90387 16.0228 10.0561C16.1904 10.2083 16.2942 10.4906 16.2942 10.9031V12.1196C16.2942 12.5541 16.1904 12.8364 16.0228 12.9887C15.8553 13.1409 15.5213 13.2059 15.0411 13.2059V13.2046ZM15.6051 6.62262H3.33337V21.1111H6.81994V16.3974H13.2453L16.2942 21.1111H20.1985L16.8369 16.3753C18.0762 16.184 18.6328 15.7885 19.0917 15.1367C19.5507 14.4849 19.7808 13.4427 19.7808 12.0519V10.9655C19.7808 10.1407 19.697 9.48883 19.5507 8.98924C19.4043 8.48962 19.1542 8.05507 18.7991 7.66477C18.4239 7.29526 18.0062 7.03505 17.5047 6.86071C17.0033 6.70848 16.3767 6.62132 15.6051 6.62132V6.62262Z" fill="#E8F1FB"/>
<path d="M22.877 6.62132C24.3564 6.62132 25.5556 5.38781 25.5556 3.86622C25.5556 2.34462 24.3564 1.11111 22.877 1.11111C21.3977 1.11111 20.1985 2.34462 20.1985 3.86622C20.1985 5.38781 21.3977 6.62132 22.877 6.62132Z" fill="#E8F1FB"/>
</svg>
