<svg width="27" height="27" viewBox="0 0 27 27" fill="none" xmlns="http://www.w3.org/2000/svg">
<path d="M17.9042 10.3236C18.5175 9.71031 19.1264 8.2792 16.5708 10.017C12.9397 12.5225 9.36084 14.8748 9.36084 14.8748C8.99244 15.0413 8.59417 15.1317 8.18995 15.1405C7.78573 15.1493 7.38391 15.0763 7.00862 14.9259C5.47529 14.4659 3.68529 13.8525 3.68529 13.8525C3.68529 13.8525 2.46307 13.0848 4.55529 12.267C4.55529 12.267 13.4008 8.63698 16.4686 7.35809C17.6442 6.84698 21.632 5.21142 21.632 5.21142C21.632 5.21142 23.4731 4.49476 23.3197 6.23365C23.2686 6.9492 22.8597 9.45587 22.4508 12.1648C21.8364 15.9992 21.172 20.1925 21.172 20.1925C21.172 20.1925 21.0697 21.3681 20.2008 21.5725C19.2707 21.5568 18.372 21.2333 17.6453 20.6525C17.4408 20.4992 13.8108 18.1981 12.4808 17.0736C12.3456 16.982 12.2356 16.8576 12.1613 16.7121C12.087 16.5665 12.0507 16.4046 12.0558 16.2412C12.0609 16.0779 12.1073 15.9185 12.1905 15.7779C12.2737 15.6373 12.3912 15.52 12.532 15.437C14.3764 13.7503 16.5753 11.6536 17.9042 10.3236Z" fill="#E8F1FB"/>
</svg>
