<svg width="27" height="27" viewBox="0 0 27 27" fill="none" xmlns="http://www.w3.org/2000/svg">
<path d="M24.4393 11.0378C24.4893 9.59845 24.1733 8.16984 23.5207 6.88465C23.078 6.35731 22.4635 6.00144 21.7844 5.87905C18.9756 5.62515 16.1552 5.52109 13.3352 5.56731C10.5255 5.51899 7.71525 5.6197 4.9163 5.86899C4.36293 5.96927 3.85083 6.22783 3.44248 6.61314C2.53397 7.4478 2.43302 8.87576 2.33207 10.0825C2.18561 12.2522 2.18561 14.4292 2.33207 16.5988C2.36128 17.278 2.46279 17.9522 2.63491 18.6101C2.75663 19.118 3.00289 19.5879 3.35163 19.9777C3.76276 20.3834 4.28678 20.6567 4.85573 20.7621C7.03205 21.0297 9.22491 21.1406 11.4172 21.0939C14.9504 21.1442 18.0494 21.0939 21.7138 20.8124C22.2967 20.7134 22.8355 20.4398 23.2583 20.028C23.5409 19.7463 23.752 19.4016 23.874 19.0224C24.235 17.9188 24.4124 16.7639 24.399 15.6033C24.4393 15.0401 24.4393 11.6412 24.4393 11.0378ZM11.0538 16.2067V9.98193L17.0299 13.1094C15.3542 14.0345 13.1434 15.0804 11.0538 16.2067Z" fill="#E8F1FB"/>
</svg>
