<svg xmlns="http://www.w3.org/2000/svg" xmlns:xlink="http://www.w3.org/1999/xlink"><defs><clipPath id="clip0_151_282"><path fill="#fff" d="M0 0h26.667v26.667H0z"/></clipPath><radialGradient id="paint0_radial_83_304" cx="0" cy="0" r="1" gradientTransform="matrix(9.31 9.33334 -9.31 9.33334 22.11 9.662)" gradientUnits="userSpaceOnUse"><stop stop-color="#0AF"/><stop offset="1" stop-color="#00406C"/></radialGradient><radialGradient id="paint1_radial_83_304" cx="0" cy="0" r="1" gradientTransform="matrix(6.31751 6.33334 -6.31514 6.33096 21.779 9.667)" gradientUnits="userSpaceOnUse"><stop stop-color="#fff" stop-opacity=".7"/><stop offset="1" stop-color="#fff" stop-opacity="0"/></radialGradient><clipPath id="clip0_83_304"><path fill="#fff" d="M0 0h133v26H0z"/></clipPath><clipPath id="clip0_231_355"><path fill="#fff" d="M0 0h80v10H0z"/></clipPath><clipPath id="clip0_2050_147"><path fill="#fff" d="M0 0h40v10.259H0z"/></clipPath><clipPath id="clip0_427_992"><path fill="#fff" transform="translate(.3)" d="M0 0h39.7v10.259H0z"/></clipPath><clipPath id="clip0_231_366"><path fill="#fff" d="M0 0h37v10H0z"/></clipPath><clipPath id="clip0_427_1073"><path fill="#fff" d="M0 0h56v10H0z"/></clipPath><clipPath id="clip0_427_845"><path fill="#fff" d="M0 0h45v19H0z"/></clipPath><clipPath id="clip0_427_947"><path fill="#fff" d="M0 0h45v19H0z"/></clipPath><clipPath id="clip0_2049_146"><path fill="#fff" d="M0 0h45v10H0z"/></clipPath><clipPath id="clip0_49_66"><path fill="#fff" d="M0 0h45v10H0z"/></clipPath></defs><symbol id="arrow-left" viewBox="0 0 14 24"><path d="M14 22.41L12.36 24 0 12 12.36 0 14 1.59 8.556 6.874v10.254L14 22.41z" fill="currentColor"/></symbol><symbol id="arrow-right" viewBox="0 0 14 24"><path d="M0 22.41L1.64 24 14 12 1.64 0 0 1.59l5.444 5.283v10.254L0 22.41z" fill="currentColor"/></symbol><symbol id="close" viewBox="0 0 14 15"><path d="M1 1l12 13m0-13L1 14" stroke="currentColor" stroke-width="2" stroke-linecap="round"/></symbol><symbol id="habr" viewBox="0 0 27 27"><g clip-path="url(#clip0_151_282)"><path d="M3.127 11.349l.179.264c-.358-.011-.733-.045-.806-.197l.005-.022c.2-.052.373-.056.622-.045zm1.905.801l.087.26-.202.01.048-.267a.734.734 0 00.067-.003zm.69 1.902c-.179.163-.318.272-.424.518-.148-.12-.225-.357-.272-.623-.052-.29-.07-.611-.11-.852a30 30 0 00.013-.123l.208-.015.53.99.055.105zm-.268-2.44a60.695 60.695 0 01.082-.533 4.67 4.67 0 00.068-.004l-.15.538zM5.31 9.195l.95.254-.005.043c-.442.32-.85.463-1.07 1.047l.083-1.3.042-.044zm.887-1.345c-.063.604.024.872.131 1.247.17.12.236.19.18.366-.284-.139-.586-.285-1.022-.262a3.598 3.598 0 01-.032-.036c.123-.477.36-.77.546-1.147l.197-.168zm1.364-.803l.04-.003c-.13.445-.183 1.474-.412 1.882-.54-.253-.53-1.35.075-1.783l.297-.096zm-.505 3.301l.456.49c-.179.543-.518.953-.66 1.582l-.27-.02c-.23-.634.345-1.668.443-2.13l.422.048.155.391-.546-.36zm1.247-3.304c-.046.528.072.801.104 1.21-.268.135-.537.27-.805.403a5.426 5.426 0 01.393-1.59l.308-.023zm.313-.803l.06-.003-.09.257-.179.011.138-.16.071-.105zm.06 2.464l-.806.49c.017-.297.4-.696.718-.807l.074.04.014.277zm.537-1.853l-.145.818-.151.093c-.026.03-.053.058-.08.087-.146-.202-.182-.698-.15-1.075l.526.077zm.537-.614l-.003.027-.206.194c-.137.052-.154.05-.328.045l.073-.266h.464zm.537-1.076l-.24.538-.834-.06.004-.043c.343-.157.644-.342 1.07-.435zm-.434 1.396l.089-.052.076.27-.268-.053.103-.165zm.703.795c-.32.123-.762.09-1.018.229a64.983 64.983 0 00-.057-.323l.168-.215.812.315.095-.006zm-.687.484l-.365.013-.023-.113c.257-.104.688-.113 1.075-.155l-.408.221-.28.034zm.955 0c-.307.075-.602.343-.803.551-.04-.243.434-.672.661-.806.1.088.111.079.142.255zm.537-3.212l-.004.042-.323.192-.479.034a.866.866 0 00.005-.042l.801-.226zm-.434.806l-.103-.15c.242-.202.777-.091 1.074-.061l-.971.211zm2.403-.792c.449.037.859.142 1.17.334l.083-.005-.05.069-.429.125-.774-.11-1.7-.24c0-.011.003-.022.004-.033a5.742 5.742 0 011.696-.14zm1.786-.141l-.095.127a1.307 1.307 0 01-.706-.27l.805.102c0 .014-.003.027-.004.04zm1.43.993l.223-.083.231.197c-.031.223-.25.407-.418.625l-.129.008c-.35-.573-.792-1.2-1.567-1.42l-.034-.068.313-.125c.527.181.966.456 1.455.615.062.15.043.1-.074.251zm.648 1.275l-.06-.06-.134.01.222-.21-.028.26zm.237 2.966c.363.31.456.76.305 1.344l-.468-1.039.154-.23c.003-.025.005-.05.01-.075zm.106-2.416l-.004.05-.191.216-.073-.144c.114-.202.032-.093.182-.115l.086-.007zm.223-.003l.851.31-.008.085a56.15 56.15 0 01-.214.142l-.852-.31.008-.085.215-.142zm1.657 1.075l-.472-.31-.065-.124c.204-.124.175-.118.391-.077l.146.511zm.268-.102l-.094.102c-.115-.058-.135-.132-.174-.269l.246.106.022.06zm-.2-.769l-.068.005.223-.21c-.052.07-.105.137-.155.205zm1.274 1.352l-.13.057-.72-.4-.224-.3c.373-.272.386.042.737.214l.337.43zm.269.237l-.269-.096.162-.084.107.18zm-.327.433c.097.194.096.139.327.11l-.413.352-.393-.741.005-.046c.29-.062.383.042.666.083l.11.173-.302.07zm.058.482l.537-.289c-.107.24-.247.363-.413.538l-.124-.248zm1.074 1.027c-.145.124-.24.164-.515.186l.221.024a1.353 1.353 0 00-.004.039l-.756.317c-.008-.32-.013-.64-.02-.959l.522-.61.095-.044.457 1.046zm-.268-1.47c1.482-.41 1.196.368.534.96l-.534-.96zm1.342.154c-.546 2.536-.651 2.674-2.583 3.764l-.102-.151.069-.283c1.26-.355 1.976-1.007 1.901-2.483l.632-.801.083-.046zm.066 0a25.8 25.8 0 00-.066-.263l.202-.006-.136.27zm-3.288 2.466a43.888 43.888 0 01.035-.52l.187-.061.026-.003c.052.317 0 .552-.107.806-.09-.056-.107-.08-.14-.222zm-1.074 2.352l.004-.046.353-.833.074-.175.62.04c.009.047.015.092.019.135.027.316-.084.57-.198.9l-.872-.021zm.269 1.08l.007-.417.01-.104c.152.01.303.022.454.033l.066-.005c-.104.17-.208.34-.31.51a70.582 70.582 0 01-.227-.018zm-.266-1.74l.027-.014.215-.11c.008 0 .016 0 .024-.002-.012.037-.022.074-.033.112l-.124.426-.112-.38.003-.032zm-.42 1.338l-.12-.12c.118.082.041.002.12.12zm-.657-.32c.15-.094.314-.065.537-.062l-.066.215c-.183.073-.21.046-.418.025l-.053-.178zm.329 1.007l.208.484c-.16.108-.322.215-.483.322-.143-.194.014-.739.275-.806zm-.53-1.687l-.067.005.088-.2-.021.195zm.773.074l-.035-.022.118-.245.04-.002.11.258-.233.011zm1.86-3.495l-.015-.09c.07-.085.116-.138.237-.178l.031.159-.156.103-.098.006zm-.015.657c-.049.063-.135.099-.196.15a857.44 857.44 0 01-.073-1.344l.269 1.194zm-.493 1.802c.178-.098.203-.008.224.23l-.537-.002.009-.083.304-.146zm-.263-.744l.12-.102.099.174-.046.095-.223-.025.05-.142zm-.05.713l-.28.26-.182-.03a18.2 18.2 0 01-.075.008l.13-.246.407.008zm-1.013-.152c-.112-.078-.03-.067-.052-.125l.052.125zm.847-1.2l-.908-.465c.042-.614.119-1.32.057-1.955.7.251 1.327 1.374.85 2.42zm-.64 0c.224.116.211.223.52.316.055.2-.027.278-.156.49l-.329-.013c-.068-.354.006-.557-.034-.793zm.062 1.737c-.113-.077-.032-.066-.053-.124l.053.124zm1.818-2.587l.003-.05.242-.176c.043.276.027.734-.037 1.076-.143-.111-.17-.578-.208-.85zm0 .85l.162-.27c-.032.088-.064.176-.094.265l-.068.004zm1.566-.804l.045-.003c.013 1.03-.63 1.217-1.476 1.605l-.135.008.527-1.079 1.039-.531zm-1.591-2.012l.025.08-.067.048-.201-.27.242.142zm-.243.447l.007-.047.06-.004.201.27c-.155-.074-.18-.092-.268-.219zm.268.687l-.362.338-.778-1.115-1.008-.864.222-.172c.488.209 1.342.606 1.514 1.102.056.16-.137.294-.006.429.156.16.312.046.418.282zm-2.266 1.682l.082.032.036.774-.126-.029c-.118-.086-.2-.486-.092-.66l.1-.117zm-.595 1.347l.087-.003.089.21-.138.053-.13.006.092-.266zm-.245 4.298L17 17.134l.496-.142.041-.003a.647.647 0 00-.004.037l-.417.5zm-.384-1.075c.048-.158.084-.182.173-.27l.075.029.02.07-.165.16-.104.01zm.126.268l-.127-.137.269-.131-.07.264-.072.004zm-.283 1.22l-.112-.09.083-.006.414-.317.04.323-.317.214-.108-.123zm.02 3.078c-.646.028-1.032-.135-1.561-.18l-.603-1.181-.116-.118c1.014-.12 1.652-.603 2.404-.937.266.25.868 1.523.338 2.087-.126.192-.27.212-.462.33zm-2.776-1.325l.244-.016c.365.242.614.677.789 1.076l-1.074-.307c.08-.269.113-.542.041-.753zm-.771-1.015l1.209-.345 1.903.184.035.095c-.567.252-1.212.464-1.862.789-.704.055-.873-.204-1.36-.375l.075-.348zm-.076 1.267l.024-.233.463-.035c.038.203.079.316.022.538l-.509-.27zm-.537.42l.18-.098c.22-.144.387.049.626.124l-.095.093-.71-.118zm.522-.419a12.42 12.42 0 01-.175-.079l-.078-.19.268.017-.015.252zm-.79 0l.268.227c0 .141-.013.125-.045.31l-.223-.537zm-.697-1.008c.252-.075.588-.059.965-.067l-.35.269-.724-.07.11-.132zm-.646-13.471c.498-.47 1.75-.33 2.063-.031l.085-.008c-.417.384-1.063.429-1.46.809-.31-.205-.568-.336-.688-.77zm2.743.77l.21.236c-.187.011-.385.022-.582.038-.444.038-.883.103-1.19.26-.013.002-.026.002-.04.003a48.79 48.79 0 01-.067-.103 3.88 3.88 0 011.63-.432l.039-.002zm1.046-1.345c.347.345.866.548 1.044 1.076-.729-.335-1.848-.33-2.416-.862.5.106.926.066 1.372-.214zm.239 1.882l.996.135.078-.006-.799.678c-.125-.25-.155-.587-.275-.807zm1.28 1.15l-.206-.031.269-.044-.063.075zm-.206-.642l.246-.239c.008.09.014.18.023.269l-.179-.039-.09.009zm.487 8.896l-.118.005-.1-.094c.025-.034.05-.068.077-.102l.191-.073-.05.264zm-.214.49l.099-.112.009-.104.156.245-.268.023.004-.052zm-.106.859l-.167-.198.537-.071-.256.261-.114.008zm.102.806c-.18-.02-.358-.042-.538-.063l.379-.206.159.27zm-.377-.758l.108.102-.389.099-.417.02.581-.27.117.049zM14.315 5.968c.314.008.645.087.805.269-.216-.022-.605.013-.703-.152l-.102-.117zm.273 1.075c.153.132.207.288.179.538-.237-.081-.175-.337-.18-.538zm.264 1.695l.008-.046c.535-.115.651.068.407.233-.21-.029-.307-.107-.415-.187zm.688 6.907l.117.03a1.17 1.17 0 00-.004.036l-.264.203.11-.266.04-.003zm-.148-6.557l.2-.163.065.269-.268-.059.003-.047zm.803 7.189l-.65.167-.156.008.004-.028c.244-.046.4-.126.543-.241l.227.042.032.052zm-.464-.632l-.074-.149.185-.12.084.045-.106.216-.089.008zm-1.685 1.859l.32-.246.99.084.033.073-.668.38c-.248-.04-.463-.148-.59-.297l-.085.006zm-.497.023l.497.269-.805-.14.308-.13zm-.04.549c0 .022-.002.043-.003.065l-.153.084-.112.014c0-.022.003-.043.004-.065.117-.153.097-.102.264-.098zm-1.266-10.94a6.779 6.779 0 00-.076-.08c.266-.145.687-.213 1.1-.246.342-.027.678-.031.918-.036l.13.807c-.35-.038-.686-.083-1.047-.1a5.543 5.543 0 00-.937.034 37.642 37.642 0 00-.088-.38zm.395 10.786l.066.114-.064.241c-.247.02-.494.038-.742.056.08-.24.198-.355.326-.537l.414.126zm-.915-.933c-.338-.018-.8-.262-.899-.537l1.074.27-.175.267zm.377-.014l-.202.014.007-.064.223-.205-.028.255zm-.739-9.83l.327-.102.21.26-.22.009-.317-.167zm-.004 11.541l-.05.177a1.664 1.664 0 00-.079.008l-.135-.269.268.027-.004.057zm.15-1.16l.626.126.034.084-.487.597-.587-.085.413-.721zm4.688-8.424l.12-.175.045-.002.337.084.035.047-.378.138-.16-.092zm.726-.868l-.19-.116c.193.07.082-.008.19.116zm-.061 1.228a17.073 17.073 0 01-.128-.108l.268-.16-.14.268zm-.128 1.882l.417.102c.112.043.11.055.12.167-.18-.068-.48-.115-.537-.269zm.04-.732l.058-.074.17.268-.268-.051.04-.143zm-5.439 8.844l.028.071-.362.137-.175.013.004-.036c.04-.064.082-.128.123-.191.171-.078.175-.027.382.006zm-.777-13.488c.234.171.294.384.259 1.075-.155-.195-.248-.608-.26-1.075zm.154-.538l-.02.195-.134.01c.05-.069.102-.136.154-.205zm-.155.269a6.06 6.06 0 01-.02.194l-.248-.045.204-.144.065-.005zm0 15.591c.044-.456.09-.912.133-1.368l.942-.245-.99 1.564-.085.05zm.067-3.678l.144-.085c.132.155.014.377-.11.537-.104-.096-.115-.155-.088-.373l.054-.08zm-.872-.132l.31-.49c.165.095.33.19.495.287-.17.262-.34.525-.512.787-.154-.135-.249-.334-.293-.584zm0 2.106c.164-.15.33-.297.495-.446l.234.02c.026.042.05.084.077.126l-.06.391-.746-.091zm-.806-.365l.59-.35.45.07.034.06-.472.408c-.237-.025-.394-.087-.517-.193l-.085.005zm-.078-.52l.216-.099.092.02.039.044-.626.205-.18-.062.46-.108zm-.727-.252l.158-.378c.294-.038.363.105.583.196l.064.096-.328.222-.267.017-.21-.153zm-.537 1.103l.39-.681c.26 0 .291.02.398.156.047.079.007.037-.097.054l-.024.235c.136.02.272.041.407.063-.08.196-.093.17-.214.295-.4.021-.58-.055-.86-.122zm-.452-.95l.682.203.038.08-.438.524c-.212-.07-.424-.138-.636-.206l.354-.601zm-2.63-.726l.008-.08.38.29.034.076c-.793.604.419 2.573 1.798 1.297l.593.236c-.228.401-.62.56-1.032.786-.986.081-2.367-1.509-1.782-2.605zm.92.275l.014.182-.22-.163-.049-.106.254.087zm1.356 1.142l-.49.374c-.966.1-1.358-.56-1.39-1.371l.189-.225.083-.007c.486.379.916.956 1.576 1.147l.032.082zm-.935-3.917c-.088-.063-.094-.093-.139-.2l.184-.69.215-.185c.046.067.093.133.138.2l-.398.875zm-.139.233l.424-.989.087-.05c.195.34.477.493.563.955l-.638.658a1.274 1.274 0 01-.436-.574zm.806.822l.539-.517.266.538c-.268-.008-.536-.014-.805-.021zm1.342-5.432c-.254.537-.593.901-.795 1.42-.089-.471.445-1.15.617-1.566l.082-.047.096.193zm0-1.478c.4-.123.667-.346.954-.596l.12.359-.338.447-.736-.21zm1.343.027l-.146.183-.123-.02.003-.03.244-.219.022.086zM9.001 8.39l.043-.003.169.352-.064.186c-.246-.127-.236-.278-.148-.535zm-.05 7.793l.249.175-.256-.11.008-.065zm-.004.269c.09.037.178.075.266.113a.943.943 0 00-.004.033l-.57.391c-.164-.072-.184-.216-.232-.375l.005-.033.535-.13zm-.795-.538l.255.101-.136.08-.132.014.013-.195zm-.013-5.376c.322.09.22.03.235.268-.149-.085-.16-.126-.235-.268zm0 4.801l.022-.231a.687.687 0 01.246.268 60.35 60.35 0 00-.268-.037zm.537-3.357c-.1.129-.097.093-.269.168l.118-.268.15.1zm0-1.08l-.169.173c-.169-.094-.088-.057-.013-.23l.101-.039.08.096zm-.022-.458l-.247-.175c.19.072.147.028.247.175zm-.515 4.932l.268.212c-.137-.004-.21-.033-.268-.212zm.805-.01l-.109.01-.094-.171-.065-.084c.048-.005.097-.01.145-.013l.123.258zm-.148-4.977l-.12-.12c.118.081.04.002.12.12zm.017 4.427l-.137-.282.058-.23.034-.003.176.538-.13-.023zm-.704 3.127l.03.036-.096.354a.728.728 0 01-.441-.537l.507.147zm-.776.39l.269.235c-.172-.074-.182-.07-.269-.235zm.464-2.382l.032.232-.227-.27.195.037zm-.266 1.256a160.02 160.02 0 01-.198-.487c.235.09.419.355.537.538l-.339-.05zm.211-4.786l.067-.002-.196.27c-.033-.067.007-.13.116-.209l.013-.059zm-.14 2.31l-.054.108-.154-.119-.06-.127.21-.023.058.162zm-1.88 2.258c.539.346 1.452.667 1.611 1.344a4.453 4.453 0 01-1.61-1.344zm1.396-.26l.215.26-.537-.269.322.01zm1.966.798l-.408-.405.714-.67.091.737-.397.338zm.397.45l.072-.176.094-.005.103.268-.269-.088zm.362-.988c-.03-.09-.062-.179-.093-.269l.195.036-.102.233zm-.362-9.052l.003-.023.266-.065-.186.27-.083-.182zm-2.707 5.558l-.246-.538c.315.068.265.29.246.538zm-.658.268c-.229-.157-.376-.47-.394-.806.471.11.446.293.537.718l-.143.088zm-.277-1.402c-.342-.32.156-1.6.376-1.894.115-.145.261-.142.454-.198l.127.032c-.322.565-.54 1.332-.618 2.118l-.34-.058zm-.501 4.36l.164.272-.147.338-.084.088c.12.017.146-.085.327-.23.347.558.88 1.09 1.467 1.394l-.32.557-.97-.617c-.112-.203.042-.436-.137-.56-.161-.113-.37.05-.534 0l-.456-.412c.134-.296.263-.585.528-.736l.162-.095zm-.929-2.965a6.79 6.79 0 01.158-.796l.036-.003.14.8.073.417.638 1.74c-.51-.276-.826-.912-.78-1.768-.123.276-.021.71.02.954-.315-.262-.355-.784-.285-1.344zm-.465.276a.97.97 0 01-.091-.324 2.087 2.087 0 01.005-.452l.046-.096.207-.203-.117.751-.05.324zm18.695 2.688l-.537-.204.521-.064.016.268zm-14.21 4.376l.14-.075c-.053.09-.108.18-.162.269l.022-.194zm-4.05-9.214l-.228-.022c-.285-.092-.553-.42-.577-.785.436.039.584.243.8.492l.006.315zm-.031-.023c.031-.58-.417-.942-1-.926.1-.816.817-1.232 1.457-1.506l.123-.009c-.107 1.023-.026 1.904-.413 2.789-.286.652-1.3.64-1.244 1.645a1.3 1.3 0 00.007.085c.144 1.337 1.617 1.61 1.821 2.786-2.183 1.096.478 5.705 2.205 2.998.31.043.585.182.97.048.179-.097.214-.176.283-.38l.617.315.033.077c-.566.434-.965 1.028-1.572 1.435l.058-.165-.16-.028-.086.046-.079.366c.347.349 1.399-.916 1.707-1.164-.175.601-.605.91-.844 1.46l.074.075c.453-.32 1.01-1.228 1.094-1.92l.68.112c-.852 1.137-3.04 3.636-4.188 4.304.174-.543.453-.957.593-1.403l-.081.006a6.962 6.962 0 00-.074-.075c-.28.544-.741.926-.823 1.66.058.089.12.137.183.186 1.367-.225 3.65-3.618 4.74-4.544-.294 2.926-1.883 3.383-3.26 5.156 1.251-.617 2.011-2.19 3.082-3.064-.118 1.224-.413 3.957-1.155 4.443l.123-.01c.831-.51.88-2.609 1.157-3.682l.118-1.128 1.188-1.646.086-.047c.133.412.734.858 1.385.738l.467-.193 1.173.433c.154 1.667.095 2.6-.973 3.87 1.091-.55 1.492-2.674 1.13-3.8 2.537.29 2.436-.556 1.954-2.382l.446.007c-.082-.122-.304-.031-.474-.125-.078-.049-.062-.04-.11-.112.603-.672 2.056-.005 1.752 1.111.417-.925-.506-1.748-1.395-1.417.38-.444.84-.81 1.08-1.398l.087-.047c.695.723 1.392 1.445 2.088 2.167l.123-.009.095-.127c-.663-.777-1.328-1.556-1.99-2.334.07-.032.141-.064.213-.095a.436.436 0 01.368-.127 18.65 18.65 0 01-.106-.052c1.067.106 2.43.984 3.542.7.103-.175.108-.271.046-.442 1.186.03 3.319-.363 3.998-.932-1.824.379-3.88.507-5.555.286l-1.485-.172-.082.006.399-.709c1.224-.022 4.433-.053 5.082-.81l-.143-.19-.56-.08c-.049.071-.055.138-.063.206l.442.047c-.962.24-3.64.744-4.515.45-.092-.11-.024-.493-.02-.77a.982.982 0 00-.006-.148c1.257-.371 2.19-1.206 2.573-2.467.219-.721.074-1.67.547-2.119.302.026.363.152.584.237-.117-.16-.284-.25-.494-.324l-.394.269c-.36.138-.736-.222-1.346.058-.496-.418-.776-1.08-1.445-1.333l-.07-.115.813-.78c-.266.22-.537.48-.808.74l-.544-.24-.032-.079c.62-.433 1.17-.594 1.876-.456l.102.192c-.034.056-.063.071-.09.087l-.238-.063c.102.06.209.078.315.097l.09-.086.013-.121c-.154-.136-.201-.234-.504-.244l.145-.21c-.347.235-1.049.297-1.393.502l.795-.618.095-.127-1.472.867c-.314-.022-.648-.167-.817-.34l-.082.006c.582-.39 1.165-.778 1.747-1.167l-.028-.118-1.989 1.145-.634-.154.059-.564 4.554-3.531.082-.006a12.96 12.96 0 01-.066-.156c-.169-.08-.861.476-1.123.642-1.008.64-1.9 1.434-2.892 2.01.41-.513 1.16-1.024 1.283-1.772l-.2-.026-.312.263.34-.145c-.22.658-1.215 1.836-1.775 2.209a51.219 51.219 0 01-.065-.155c.365-.607.724-1.422.556-2.2l-.307-.178c-.11.009-.218.017-.328.024.21.082.353.103.507.203.099.755-.278 1.265-.48 1.875l-.086.046c-.136-.246-.127-.366-.404-.41l-.024-.159.189-.253.131-.09c.044.082.046.053.06.196a.398.398 0 00.062-.205l-.155-.068-.41.43c-.343-.227-.72-.465-1.202-.553.272-.56 1.103-1.46.674-2.168-.523-.862-2.308.132-2.962.815a1.277 1.277 0 00-.197.255 5.78 5.78 0 01.197-.15c.645-.475 2.364-1.612 2.736-.704.39.508-.357 1.484-.562 1.88-.696-.069-1.424-.135-2.173-.12a7.92 7.92 0 00-2.322.369c-.38.124-2 1.082-2.061 1.07l-.74-.706-1.544-.767-.008.08-.09.087 1.979 1.655-.303.182c-.814-.61-1.375-.98-2.587-1.29l-.204.014c.707.482 1.42.923 2.132 1.364l.143.19c-.509.212-.724.65-1.153.924-.671-.317-1.292-.603-2.105-.847-.02.055-.04.11-.058.165l1.524.968.081-.006-.262.18c-.122.403-.36.87-.557 1.44-.76.61-1.744.573-1.896 1.817-.242.066-.414.086-.635.246l-.017.162c.138.192 1.372.707 1.667.757l.18-.173zm9.009-8.6l.112.02-.151-.018-.077.004c.118-.22.468-.273.805-.249l-.023.158c-.22.01-.44.022-.658.033l-.008.052zm.47.29l.317-.104c.137-.224.215-.462.145-.68-.325-.064-.514.015-.819.14l-.165.27-.064.103a.6.6 0 00.064.062c.103.084.228.114.457.095.062.106-.01.059-.124.089l.19.024zm7.81 2.419c-.114.02-.228.042-.34.063l.209-.015.239.102-.363.656c.186-.217.372-.372.451-.702l-.196-.104zm-1.952 10.484c-.085-.148-.177-.246-.268-.27.081.077.175.166.268.27zm-1.074 3.225l-.268.154.206-.019.062-.135zm1.074-3.225c.273.304.478.887.419 1.344.31-.662-.044-1.075-.419-1.344z" fill="#E8F1FB"/></g></symbol><symbol id="link-arrow" viewBox="0 0 15 11"><path d="M8.667 9.96l.702.707 5.298-5.334L9.37 0l-.703.707L11 3.055v4.557L8.667 9.96z" fill="currentColor"/><path d="M9 4.834H0v1h9v-1z" fill="currentColor"/></symbol><symbol id="logo-cnews" viewBox="0 0 133 26"><g clip-path="url(#clip0_83_304)"><path d="M13.755 0h1.265c1.523.124 3.156.215 4.46 1.1.742.485 1.12 1.477.804 2.318-.417 1.161-1.638 2.135-2.913 1.902-.72-.202-1.32-.671-1.89-1.135-.927-.76-1.822-1.592-2.923-2.1-.864-.43-1.879-.405-2.8-.205-1.646.394-2.945 1.646-3.778 3.075a11.651 11.651 0 00-1.513 5.986c-.003 2.515.701 5.056 2.129 7.136 1.442 2.103 3.671 3.687 6.177 4.206 1.774.406 3.695.31 5.363-.45.739-.326 1.429-.754 2.085-1.223.349.205.704.397 1.076.557-1.667 1.894-3.829 3.38-6.253 4.113-2.544.764-5.36.72-7.831-.293-2.697-1.087-4.87-3.31-6.049-5.954C.447 17.492.107 15.802 0 14.111v-1.137C.11 11.4.432 9.831 1.077 8.386c1.126-2.598 3.12-4.781 5.538-6.235C8.762.835 11.248.13 13.755 0zm26.402 0h.015c.206.072.407.148.612.221-.156 1.358-.281 2.72-.444 4.078C42.672 2.6 45.123.873 47.989.246 48.536.117 49.094.062 49.651 0h1.015c1.067.091 2.158.25 3.114.762 1.132.553 2.017 1.543 2.519 2.69.732 1.624.855 3.437.868 5.193 0 3.51.002 7.018 0 10.527-.006.733.01 1.469.08 2.198.096.596.17 1.237.562 1.722.362.472.925.733 1.484.886.727.197 1.468.348 2.217.425.014.281.017.563.017.845H48.521c.008-.277-.038-.565.036-.837 1.115-.194 2.326-.313 3.271-.996.895-.707.94-1.94 1.023-2.986.054-2.468.02-4.939.03-7.408-.015-1.67.066-3.353-.231-5.006-.227-1.256-.669-2.539-1.596-3.455-1.224-1.285-3.093-1.684-4.806-1.636a7.14 7.14 0 00-2.614.395c-1.124.41-2.116 1.115-2.988 1.924-.124.09-.07.254-.085.381.01 4.897-.005 9.793.007 14.691.053.825.071 1.685.427 2.447.303.631.956 1 1.602 1.19.757.213 1.532.37 2.314.454.004.28.004.562.004.841-4.333 0-8.668 0-13.002.002.01-.281.012-.563.018-.845.78-.084 1.552-.247 2.304-.478.706-.225 1.382-.682 1.655-1.4.43-1.211.34-2.517.391-3.78V7.604c-.015-.738-.006-1.505-.334-2.183-.519-1.032-1.493-1.724-2.394-2.398-.002-.187-.003-.373-.006-.558 2.2-.83 4.412-1.63 6.61-2.465zm31.598 0h1.139c.7.075 1.406.147 2.086.337 1.833.46 3.498 1.603 4.524 3.2.902 1.377 1.321 3.023 1.4 4.657-5.38-.008-10.76.005-16.137-.006-.119.91-.168 1.83-.228 2.746-.245 2.618.468 5.333 2.038 7.449a9.412 9.412 0 005.852 3.684c1.528.268 3.142.259 4.613-.28 1.585-.56 2.874-1.737 3.862-3.073.282.205.565.411.844.625-1.478 2.497-3.688 4.61-6.395 5.703-3.62 1.482-7.995.75-11.02-1.709-1.637-1.3-2.874-3.073-3.63-5.018-.847-2.128-1.074-4.475-.798-6.74.414-3.755 2.395-7.388 5.549-9.516C67.3.78 69.524.125 71.755 0zm-2.073 1.322c-1.567.303-2.81 1.49-3.599 2.83-.53.937-.987 1.947-1.141 3.019 1.228-.132 2.463-.077 3.692-.178a527.41 527.41 0 006.997-.298c-.377-1.64-1.026-3.317-2.323-4.449a4.147 4.147 0 00-3.626-.924zM124.75 0h.948c2 .13 4.035.676 5.678 1.854.064 1.647.099 3.3.187 4.947-.411.086-.827.153-1.237.24-.507-1.666-1.122-3.401-2.408-4.632-1.366-1.305-3.732-1.47-5.187-.228-.916.793-1.323 2.051-1.25 3.241-.01 1.272.778 2.387 1.712 3.18 1.553 1.298 3.43 2.107 5.163 3.131 1.404.83 2.819 1.775 3.731 3.165.785 1.182 1.046 2.661.851 4.058-.177 1.636-1 3.171-2.206 4.278-1.788 1.667-4.242 2.486-6.655 2.569-2.5.06-5.058-.582-7.111-2.047-.132-1.474-.195-2.954-.335-4.429-.071-.588-.026-1.187-.143-1.771.44-.091.882-.194 1.333-.215.388 1.942 1.198 3.857 2.566 5.313 1.036 1.076 2.51 1.734 4.01 1.703 1.119.03 2.254-.394 3.051-1.187 1.554-1.548 1.715-4.31.293-5.995-.809-.991-1.931-1.659-3.043-2.256-1.76-.954-3.65-1.729-5.19-3.04-1.026-.849-1.823-2.003-2.134-3.31-.337-1.472-.253-3.078.418-4.447.628-1.31 1.729-2.348 2.999-3.028C122.006.43 123.374.103 124.75 0z" fill="currentColor"/><path d="M78.278.547c3.921.006 7.844.006 11.767 0-.005.278-.005.557-.002.835-.73.047-1.487.076-2.172.368-.443.158-.833.504-.955.972-.093.532-.018 1.082.153 1.592.375 1.168.857 2.298 1.296 3.442 1.535 3.953 3.1 7.892 4.62 11.85 1.748-4.062 3.445-8.15 5.174-12.219.117-.254-.057-.506-.135-.742-.547-1.3-.92-2.707-1.765-3.858-.715-.974-1.981-1.208-3.095-1.405.004-.278.004-.555.005-.833 3.969 0 7.94.013 11.91-.007 0 .278 0 .558.002.838-.858.065-1.741.124-2.531.497-.509.244-.911.763-.884 1.348.023.771.338 1.496.601 2.209 1.76 4.725 3.566 9.433 5.306 14.163.725-1.486 1.363-3.013 2.04-4.522 1.123-2.583 2.231-5.178 3.173-7.835.376-1.146.769-2.298.927-3.498.102-.644-.086-1.387-.648-1.768-.728-.465-1.616-.465-2.439-.589.003-.28.002-.558 0-.838 3.137.011 6.274-.003 9.411.006-.003.274-.003.547-.001.82-.945.098-1.91.35-2.659.966-1.162.926-1.75 2.336-2.365 3.646-2.97 6.61-5.906 13.235-8.882 19.839a7.357 7.357 0 00-.708.013h-.045c-2.209-5.668-4.432-11.332-6.632-17.003-2.353 5.657-4.652 11.338-6.987 17.003h-.042c-.26-.02-.52-.023-.78-.02-2.783-6.921-5.56-13.844-8.357-20.761-.41-.957-.833-1.96-1.619-2.676-.727-.672-1.724-.93-2.687-1.005.005-.276.005-.551.005-.828zM24.912 19.884c3.847 0 6.966-3.127 6.966-6.985 0-3.857-3.119-6.985-6.966-6.985s-6.966 3.128-6.966 6.985c0 3.858 3.119 6.985 6.966 6.985z" fill="currentColor"/><path d="M20.352 7.6c1.096-.902 2.439-1.518 3.86-1.645 2.06-.228 4.202.547 5.655 2.026 1.285 1.294 2.037 3.108 2.01 4.937a6.905 6.905 0 01-1.53 4.37c-1.051 1.315-2.594 2.233-4.253 2.502-1.645.273-3.392-.031-4.812-.92-1.794-1.086-3.049-3.025-3.276-5.113-.263-1.942.372-3.957 1.64-5.439-.382.61-.596 1.325-.499 2.05.135 1.261 1.2 2.354 2.454 2.52 1.482.258 3.007-.832 3.275-2.307.118-.664.036-1.379-.304-1.97-.51-.946-1.573-1.572-2.651-1.506-.565-.008-1.083.235-1.569.495z" fill="url(#paint0_radial_83_304)"/><path d="M20.352 7.6c1.096-.902 2.439-1.518 3.86-1.645 2.06-.228 4.202.547 5.655 2.026 1.285 1.294 2.037 3.108 2.01 4.937a6.905 6.905 0 01-1.53 4.37c-1.051 1.315-2.594 2.233-4.253 2.502-1.645.273-3.392-.031-4.812-.92-1.794-1.086-3.049-3.025-3.276-5.113-.263-1.942.372-3.957 1.64-5.439-.382.61-.596 1.325-.499 2.05.135 1.261 1.2 2.354 2.454 2.52 1.482.258 3.007-.832 3.275-2.307.118-.664.036-1.379-.304-1.97-.51-.946-1.573-1.572-2.651-1.506-.565-.008-1.083.235-1.569.495z" fill="url(#paint1_radial_83_304)"/></g></symbol><symbol id="logo-orion" viewBox="0 0 80 53"><path d="M15.062 4.91L10.428.055H4.634l-3.2 3.403L0 4.854v8.09l4.58 5.188h5.903l4.524-5.077V4.909h.055zM3.421 14.783V3.347h8.33v11.437h-8.33zM32 5.021L27.752.056H22.29l-2.98 3.459-1.213 1.394V18.02h3.255v-5.244h7.338v5.244h3.255v-3.459l-2.483-2.455L32 9.875V5.02zM21.352 3.626h7.338V9.82h-7.338V3.626zM74.704.112h-6.235v3.347h-3.31v14.617h3.31V3.459h7.669v14.617h3.31V5.133L74.704.112zM62.566 4.854L57.93 0h-5.738l-3.2 3.403-1.434 1.395v8.09l4.579 5.188h5.903l4.525-5.077V4.854zm-11.642 9.93V3.347h8.331v11.437h-8.33zm-8.331-.111V3.459L39.338.112h-3.2v3.235h3.2v11.326h-3.2v3.347h9.655v-3.347h-3.2zM.11 49.653v2.51h79.394v-2.51H.11zM41.324 27.95l-4.69-4.797h-5.737l-3.2 3.403-1.435 1.395v8.089l4.58 5.188h5.903l4.524-5.076V27.95h.055zm-11.696 9.931V26.444h8.33v11.437h-8.33zm28.138-14.784v3.347h4.744v14.673h3.366v-11.94L63.503 26.5h7.063v-3.403h-12.8zm-3.2 3.236v-3.236H48.33l-4.138 4.686v13.278h3.2v-7.81h7.172v-3.292h-7.172v-3.626h7.172zM18.869 30.35h-6.62v-3.962H22.4v-3.291h-8.828l-4.579 4.072v2.4l3.2 2.845 1.27 1.227h6.73v4.184H10.041v3.292h8.828l4.524-4.129V34.59" fill="currentColor"/><path d="M57.766 23.153V26.5h4.744v14.673h3.366v-11.94l-2.373-2.677h7.063v-3.403h-12.8z" fill="currentColor"/></symbol><symbol id="rutube" viewBox="0 0 27 27"><path d="M15.041 13.205H6.82V9.817h8.221c.48 0 .814.087.982.24.167.151.271.434.271.846v1.217c0 .434-.104.716-.271.869-.168.152-.502.217-.982.217v-.001zm.564-6.582H3.333V21.11H6.82v-4.714h6.425l3.05 4.714h3.903l-3.361-4.736c1.24-.191 1.796-.586 2.255-1.238.459-.652.689-1.694.689-3.085v-1.086c0-.825-.084-1.477-.23-1.977a3.327 3.327 0 00-.752-1.324 3.374 3.374 0 00-1.294-.804c-.502-.153-1.128-.24-1.9-.24v.002zm7.272-.002c1.48 0 2.679-1.233 2.679-2.755 0-1.521-1.2-2.755-2.679-2.755-1.48 0-2.678 1.234-2.678 2.755 0 1.522 1.199 2.755 2.678 2.755z" fill="#E8F1FB"/></symbol><symbol id="telegram" viewBox="0 0 27 27"><path d="M17.904 10.324c.613-.614 1.222-2.045-1.333-.307a436.788 436.788 0 01-7.21 4.858 3.002 3.002 0 01-2.352.05c-1.534-.46-3.324-1.073-3.324-1.073s-1.222-.767.87-1.585c0 0 8.846-3.63 11.914-4.909 1.175-.511 5.163-2.147 5.163-2.147s1.841-.716 1.688 1.023c-.051.715-.46 3.222-.87 5.93-.614 3.835-1.278 8.028-1.278 8.028s-.102 1.176-.971 1.38a4.207 4.207 0 01-2.556-.92c-.204-.153-3.834-2.454-5.164-3.578a.97.97 0 01.051-1.637 188.234 188.234 0 005.372-5.113z" fill="#E8F1FB"/></symbol><symbol id="youtube" viewBox="0 0 27 27"><path d="M24.44 11.038a8.519 8.519 0 00-.92-4.153 2.95 2.95 0 00-1.736-1.006 79.398 79.398 0 00-8.449-.312c-2.81-.048-5.62.053-8.419.302-.553.1-1.065.359-1.474.744-.908.835-1.009 2.263-1.11 3.47a48.375 48.375 0 000 6.516c.03.679.13 1.353.303 2.011.122.508.368.978.717 1.368.41.405.935.679 1.504.784a45.67 45.67 0 006.561.332c3.533.05 6.632 0 10.297-.282a2.912 2.912 0 001.544-.784c.283-.282.494-.626.616-1.006a10.61 10.61 0 00.525-3.419c.04-.563.04-3.962.04-4.565zm-13.386 5.169V9.982l5.976 3.127c-1.676.925-3.887 1.971-5.976 3.098z" fill="#E8F1FB"/></symbol><symbol id="cloudlink" viewBox="0 0 80 10"><g clip-path="url(#clip0_231_355)" fill="#E8F1FB"><path d="M25.481 2.585L22.956 0h-3.122l-1.725 1.816-.77.733V6.86l2.5 2.776h3.18l2.46-2.705.002-4.347zm-6.332 5.3V1.757h4.52v6.128h-4.52zM80 3.543V.005h-1.814l.014 3.922h-4.257V.005h-1.811v9.65h1.811V5.667h4.248v3.988H80v-3.56l-1.375-1.276L80 3.543zM0 7.552V2.12L2.82.005h4.99v1.816h-6v6.033h6v1.815h-5L0 7.552zm33.476.288h-4.438V.004H27.22v6.838l2.104 2.805h4.146V7.833M35.288.005h-1.812v7.834h1.812V.005zm7.561 9.652l2.475-2.803V2.621L42.8 0h-5.53v9.667h5.578M39.074 7.85V1.757h4.438v6.076m5.198.002V0h-1.802l-.012 7.547 2.812 2.104h4.224V7.835H48.71zm10.3.011v-6.04L57.242.01h-1.737v1.732h1.737v6.105h-1.737v1.816h5.239V7.846H59.01zM67.739.007h-3.375v1.811h-1.811v7.837h1.811V1.818h4.15v7.837h1.809l.002-6.934L67.74.007zm-56.467 7.83V.005H9.47L9.461 7.55l2.81 2.104h4.224V7.837h-5.223z"/></g></symbol><symbol id="hyperdrive" viewBox="0 0 90 10"><path d="M36.941 2.511V10h1.813V6.974h3.963V10h1.747V8.055l-1.343-1.51 1.343-1.224v-2.81h.007L42.18 0h-2.988m-.435 1.943h3.962v3.373h-3.962V1.943zM51.867 10l2.368-2.889V2.72L51.785 0h-5.314v10h5.397-.001zm-3.64-1.879V1.825h4.277v6.296m3.731-5.594V10h1.815V6.98h3.964V10h1.747V8.06l-1.343-1.508 1.343-1.22V2.526h.004L61.48 0h-2.99m-.439 1.939h3.964v3.389h-3.964v-3.39zm11.571 6.183V1.889L67.907 0h-1.672v1.782h1.672v6.343h-1.672V10h5.06V8.125h-1.673l.004-.003h-.004zm8.544 1.76h-3.134l-2.09-2.921V0h1.8v7.96h3.687V0h1.806v6.96l-2.072 2.922h.003zM84.503 0l-2.15 2.736v4.56L84.503 10h5.026V8.13h-5.451V5.948h4.868v-1.87h-4.868V1.866h5.432V0M29.797 0l-2.15 2.703v4.561L29.797 10h5.027V8.13h-5.452V5.918h4.868v-1.87h-4.868V1.866h5.432V0M18.588 0v9.882h1.713V7h3.868l1.713-1.65V2.723l-2.22-2.72m.507 5.322h-3.868V1.699h3.868v3.626zM5.99 0v4.068H1.776V.004H0V10h1.776V5.93H5.99v4.068h1.775V0H5.99zm6.294 10h1.785V6.998l2.872-2.202V0h-1.813v5.344h-3.9L11.22 0H9.412v4.796l2.872 2.2" fill="#E8F1FB"/></symbol><symbol id="nova-ai" viewBox="0 0 40 18"><path d="M3.18 18l-.42-1.236H1.068L.648 18h-.51l1.464-4.188h.642L3.708 18H3.18zm-1.254-3.72h-.03l-.708 2.04h1.446l-.708-2.04zM4.204 18v-.42h.588v-3.348h-.588v-.42h1.68v.42h-.588v3.348h.588V18h-1.68z" fill="#E8F1FB"/><g clip-path="url(#clip0_2050_147)" fill="#E8F1FB"><path d="M27.276 10.175h-3.474l-2.315-2.96V0h1.998v8.324h4.126V0h1.997v7.216l-2.317 2.959m-7.887-7.448L16.642 0h-3.446l-1.893 1.915-.847.773v4.55l2.747 2.927H16.7l2.704-2.827V2.727zm-6.957 5.597V1.86h4.965v6.464h-4.965zM5.699.002H1.99V1.91H0v8.27h1.99V1.913h4.56v8.267h1.988l.003-7.317L5.699.003zM37.548 0H34.19l-2.44 2.763v7.421h1.998v-1.85h4.27v1.85h1.998V2.772L37.548 0zm-3.809 6.464V1.853h4.27v4.618l-4.27-.007z"/></g></symbol><symbol id="nova-se" viewBox="0 0 40 19"><g clip-path="url(#clip0_427_992)" fill="#E8F1FB"><path d="M27.276 10.175h-3.474l-2.315-2.96V0h1.998v8.324h4.126V0h1.997v7.216l-2.317 2.959m-7.887-7.448L16.642 0h-3.446l-1.893 1.915-.847.773v4.55l2.747 2.927H16.7l2.704-2.827V2.727zm-6.957 5.597V1.86h4.965v6.464h-4.965zM5.699.002H1.99V1.91H0v8.27h1.99V1.913h4.56v8.267h1.988l.003-7.317L5.699.003zM37.548 0H34.19l-2.44 2.763v7.421h1.998v-1.85h4.27v1.85h1.998V2.772L37.548 0zm-3.809 6.464V1.853h4.27v4.618l-4.27-.007z"/></g><path d="M3.831 18.605v-4.219h2.583v.448H4.34v1.414h1.952v.447H4.34v1.463h2.073v.447H3.83zm-2.334.072c-.343 0-.636-.064-.879-.193A1.896 1.896 0 010 17.94l.376-.315c.15.198.315.349.497.454.182.1.396.15.642.15.304 0 .534-.072.692-.217a.741.741 0 00.242-.58c0-.201-.06-.357-.182-.465-.121-.11-.321-.196-.6-.26l-.346-.079c-.387-.088-.684-.221-.89-.399-.203-.181-.304-.435-.304-.761 0-.186.035-.35.103-.496a1.01 1.01 0 01.285-.362c.126-.097.273-.17.443-.218.174-.053.363-.079.57-.079.319 0 .592.059.818.176.23.116.424.288.582.513l-.382.278a1.315 1.315 0 00-.424-.38 1.252 1.252 0 00-.619-.14c-.27 0-.485.059-.642.176-.154.113-.23.284-.23.514 0 .201.064.354.193.459.134.1.334.181.6.242l.346.078c.416.093.717.234.903.423.186.19.28.441.28.756a1.3 1.3 0 01-.104.526 1.05 1.05 0 01-.285.398 1.335 1.335 0 01-.46.254c-.178.06-.38.091-.607.091z" fill="#E8F1FB"/></symbol><symbol id="nova" viewBox="0 0 37 10"><g clip-path="url(#clip0_231_366)" fill="#E8F1FB"><path d="M25.23 9.648h-3.213l-2.141-2.806V0h1.848v7.893h3.816V0h1.848v6.842l-2.144 2.806m-7.295-7.062L15.394 0h-3.188l-1.75 1.816-.784.733v4.314l2.541 2.776h3.234l2.502-2.68V2.585zm-6.436 5.307v-6.13h4.593v6.13h-4.593zM5.272.003h-3.43v1.81H0v7.84h1.841V1.816H6.06v7.839h1.839L7.9 2.716 5.272.003zM34.731 0h-3.104l-2.26 2.62v7.037h1.849V7.903h3.95v1.754h1.848V2.63L34.73 0zM31.21 6.13V1.757h3.95v4.38l-3.95-.007z"/></g></symbol><symbol id="starvault" viewBox="0 0 84 11"><path d="M54.103 0h-3.171l-2.308 2.74v7.308h1.888l.01-1.897h4.004v1.897h1.898V2.74L54.104 0zm-3.582 6.394V1.897h4.005v4.497h-4.005zM83.757 0H76.59v1.897h2.67v8.151h1.897V3.373l-1.335-1.476h3.935V0zM5.551 4.075H1.827V1.897h5.762V0h-4.99L0 2.249v1.405l1.794 1.574.736.745h3.794V8.15H.562v1.897h4.989l2.6-2.319V6.383M36.82 2.74L34.428 0h-3.124l-1.671 1.941-.684.8v7.307h1.897V7.097h4.144v2.951h1.828V8.151l-1.405-1.476 1.405-1.194V2.74zm-5.973-.843h4.144v3.584h-4.144V1.897zM24.45 0h-3.17l-2.308 2.74v7.308h1.887l.01-1.897h4.005v1.897h1.897V2.74L24.451 0zm-3.58 6.394V1.897h4.005v4.497H20.87zm23.47 3.654h-3.289l-2.194-2.88V0h1.892v8.15h3.87V0h1.897v7.167l-2.176 2.881zM17.215 0h-7.167v1.897h2.67v8.151h1.897V3.373L13.28 1.897h3.935V0zM71.18 8.15V0h-1.886l-.012 7.87 2.881 2.178h4.427V8.151h-5.41zm-5.903 0H60.64V0h-1.898v7.167l2.19 2.881h4.345V8.151zM67.174 0h-1.897v8.15h1.897V0z" fill="#E8F1FB"/></symbol><symbol id="termit" viewBox="0 0 56 10"><g clip-path="url(#clip0_427_1073)" fill="#E8F1FB"><path d="M55.998 0H48.82v1.88h2.666v8.118h1.888v-6.63L52.04 1.873h3.964L55.998 0zM26.619 2.753L24.245.012h-3.1L19.477 1.94l-.68.78v7.282h1.837V7.087h4.148v2.91h1.835v-1.93l-1.43-1.386 1.428-1.252.003-2.676zm-5.984-.777h4.148v3.453h-4.148V1.976zM37.468.014H35.39V1.89h2.88v8.109h1.877l.003-7.177L37.468.014zm-6.581 0V1.89h2.879v8.109h1.878l.002-7.177L32.963.014h-2.076zM30.875 1.9h-1.88v8.098h1.88V1.9zm15.288 6.214V1.86L44.327 0h-1.803v1.795h1.803v6.319h-1.803v1.879h5.44v-1.88h-1.801zM7.178 0H0v1.88h2.666v8.118h1.888v-6.63L3.221 1.873h3.964L7.178 0zm3.596 8.114V5.929h5.309V4.057h-5.31V1.872h5.923V0H8.894h2.345L8.893 2.708v4.57l2.346 2.708h5.481V8.114h-5.946z"/></g></symbol><symbol id="zvirt-dcmanager" viewBox="0 0 45 19"><g clip-path="url(#clip0_427_845)" fill="#E8F1FB"><path d="M44.998 0H37.96v1.817h2.614v7.847h1.851v-6.41l-1.307-1.446h3.887L44.998 0zm-8.625 2.646l-2.334-2.65h-3.033l-1.634 1.866-.666.752v7.04h1.8V6.842h4.067v2.814h1.8V7.79l-1.388-1.342 1.388-1.21V2.645zm-5.867-.752h4.067v3.339h-4.067V1.894zm-5.738 5.951V1.799L22.978 0H21.21v1.738h1.768V7.85H21.21v1.817h5.333V7.85l-1.775-.005zm-8.319 1.81h-3.218l-2.147-2.81V0h1.85v7.9h3.823V0h1.85v6.846l-2.144 2.81m-8.06-.001V7.838H1.786V5.794h4.472l2.86-2.81V0H.537v1.817h6.792v2.228H2.681L0 6.678v2.984l8.403-.007zm24.244 7.866h-.483v-4.32h1.6c.352 0 .626.106.822.316.2.21.299.514.299.91 0 .318-.07.58-.207.786a.967.967 0 01-.598.402l.92 1.906h-.546l-.869-1.856h-.938v1.857zm1.116-2.302c.192 0 .34-.053.443-.16.108-.108.161-.26.161-.458v-.322c0-.198-.053-.351-.16-.458-.104-.107-.252-.161-.444-.161h-1.116v1.56h1.116zm-4.953 2.302v-4.32h2.451v.459h-1.967v1.448h1.852v.458h-1.852v1.498h1.967v.457h-2.45zm-1.399-.631h-.017a.864.864 0 01-.368.508c-.192.132-.441.198-.748.198a1.61 1.61 0 01-.679-.143 1.488 1.488 0 01-.523-.427 2.182 2.182 0 01-.345-.699 3.52 3.52 0 01-.121-.965c0-.36.04-.677.12-.953.081-.28.196-.514.346-.7.15-.19.33-.334.54-.433a1.63 1.63 0 01.702-.148c.36 0 .662.086.903.26.242.173.428.402.558.687l-.396.26a1.196 1.196 0 00-.415-.545 1.07 1.07 0 00-.65-.198 1.1 1.1 0 00-.483.105c-.146.066-.272.16-.38.285a1.35 1.35 0 00-.241.445 1.84 1.84 0 00-.086.582v.7c0 .214.028.41.086.587.058.174.138.322.242.446.107.123.237.22.39.29.154.067.327.1.518.1.138 0 .269-.019.392-.056a.956.956 0 00.327-.18.814.814 0 00.225-.29c.053-.12.08-.26.08-.421v-.427h-.886V15.3h1.358v2.221h-.449v-.63zm-3.687.631l-.402-1.274H21.7l-.403 1.274h-.489l1.404-4.32h.615l1.403 4.32h-.506zm-1.202-3.836h-.029l-.678 2.104H23.2l-.679-2.104zm-4.406 1.2l-.483-.959h-.018v3.595h-.471v-4.32h.558l1.466 2.637.484.96h.017v-3.596h.472v4.32h-.558l-1.467-2.637zm-2.143 2.636l-.403-1.274h-1.622l-.403 1.274h-.489l1.404-4.32h.615l1.404 4.32h-.506zm-1.203-3.836h-.028l-.68 2.104h1.387l-.679-2.104zm-2.85.198h-.029l-.34.724-.96 1.881-.96-1.881-.34-.724h-.028v3.639H8.79v-4.32h.644l1.15 2.327h.03l1.155-2.327h.622v4.32h-.472v-3.64zm-6.646 3.713c-.51 0-.907-.186-1.19-.557-.284-.376-.426-.926-.426-1.653 0-.726.142-1.283.425-1.67.284-.392.681-.588 1.191-.588.337 0 .62.082.846.247.23.165.408.398.535.7l-.392.253c-.08-.223-.203-.4-.368-.532a.943.943 0 00-.621-.204c-.173 0-.328.035-.466.105a.993.993 0 00-.345.303 1.44 1.44 0 00-.213.464 2.22 2.22 0 00-.075.6v.644c0 .446.096.795.288 1.046.192.252.462.378.811.378.257 0 .472-.07.644-.21.173-.145.3-.335.38-.57l.385.26a1.684 1.684 0 01-.546.724c-.238.173-.526.26-.863.26zM0 13.202h1.346c.25 0 .475.045.679.136.203.09.376.227.517.409.146.177.257.402.334.674.077.268.115.582.115.94 0 .36-.038.675-.115.947a1.898 1.898 0 01-.334.675 1.37 1.37 0 01-.517.402c-.204.091-.43.136-.679.136H0v-4.32zm1.346 3.862c.165 0 .316-.03.454-.087.138-.062.257-.15.357-.266.1-.116.176-.256.23-.421.058-.17.086-.361.086-.576v-.705a1.72 1.72 0 00-.086-.57 1.2 1.2 0 00-.23-.426.95.95 0 00-.357-.26 1.098 1.098 0 00-.454-.093H.483v3.404h.863z"/></g></symbol><symbol id="zvirt-max" viewBox="0 0 45 19"><g clip-path="url(#clip0_427_947)" fill="#E8F1FB"><path d="M44.998 0H37.96v1.817h2.614v7.847h1.851v-6.41l-1.307-1.446h3.887L44.998 0zm-8.625 2.646l-2.334-2.65h-3.033l-1.634 1.866-.666.752v7.04h1.8V6.842h4.067v2.814h1.8V7.79l-1.388-1.342 1.388-1.21V2.645zm-5.867-.752h4.067v3.339h-4.067V1.894zm-5.738 5.951V1.799L22.978 0H21.21v1.738h1.768V7.85H21.21v1.817h5.333V7.85l-1.775-.005zm-8.319 1.81h-3.218l-2.147-2.81V0h1.85v7.9h3.823V0h1.85v6.846l-2.144 2.81m-8.06-.001V7.838H1.786V5.794h4.472l2.86-2.81V0H.537v1.817h6.792v2.228H2.681L0 6.678v2.984l8.403-.007zm-5.19 4.532h-.03l-.348.679-.986 1.765-.987-1.765-.348-.68h-.03V17.6H0v-4.052h.661l1.182 2.183h.03l1.186-2.183h.638V17.6h-.484v-3.413zM7.374 17.6l-.413-1.196H5.295L4.882 17.6H4.38l1.44-4.052h.633l1.44 4.052h-.519zM6.14 14h-.03l-.697 1.975h1.424L6.14 14zm5.395 3.6h-.597l-1.08-1.7h-.012l-1.081 1.7h-.567l1.347-2.06-1.312-1.992h.597l1.034 1.614h.011l1.058-1.614h.567l-1.323 1.974 1.358 2.078z"/></g></symbol><symbol id="zvirt-metrics" viewBox="0 0 45 18"><path d="M22.49 18c-.326 0-.604-.061-.834-.184a1.8 1.8 0 01-.587-.518l.357-.299c.142.188.299.332.471.431.173.096.376.144.61.144.288 0 .506-.069.656-.207a.707.707 0 00.23-.552c0-.192-.057-.34-.172-.443-.115-.104-.305-.186-.57-.247l-.328-.075c-.368-.085-.65-.211-.846-.38-.191-.173-.287-.414-.287-.725 0-.176.032-.334.098-.472a.961.961 0 01.27-.345c.119-.092.259-.161.42-.207a1.86 1.86 0 01.54-.075c.304 0 .563.056.777.167.219.111.403.274.553.49l-.363.264a1.25 1.25 0 00-.402-.363 1.185 1.185 0 00-.587-.132c-.257 0-.46.056-.61.167-.146.107-.219.27-.219.489 0 .192.062.337.184.437.127.096.317.173.57.23l.328.075c.395.088.68.222.857.403.176.18.265.42.265.719 0 .184-.033.35-.098.5a.998.998 0 01-.27.38 1.265 1.265 0 01-.438.242c-.169.057-.36.086-.575.086zm-3.286 0c-.51 0-.907-.173-1.19-.518-.284-.349-.426-.86-.426-1.536 0-.675.142-1.193.425-1.553.284-.365.681-.547 1.191-.547.338 0 .62.077.846.23.23.154.409.37.535.65l-.391.236a1.097 1.097 0 00-.368-.495.991.991 0 00-.622-.19.976.976 0 00-.811.38 1.297 1.297 0 00-.213.432c-.05.165-.075.35-.075.558v.598c0 .415.096.739.288.973.192.234.462.35.811.35.257 0 .472-.065.645-.195.172-.134.299-.31.38-.53l.385.242a1.584 1.584 0 01-.547.673c-.238.162-.525.242-.863.242zm-3.908-.069v-.403h.563v-3.21h-.563v-.403h1.61v.403h-.563v3.21h.564v.403h-1.611zm-3.007 0h-.484v-4.016h1.6c.353 0 .627.098.822.294.2.195.3.477.3.845 0 .296-.07.54-.207.731-.135.188-.334.313-.599.374l.92 1.772h-.546l-.869-1.726h-.937v1.726zm1.116-2.14c.192 0 .34-.05.443-.15.107-.1.16-.241.16-.425v-.3c0-.184-.053-.326-.16-.425-.104-.1-.251-.15-.443-.15h-1.116v1.45h1.116zm-3.54-1.45v3.59h-.483v-3.59H8.105v-.426h3.037v.426H9.865zm-4.706 3.59v-4.016h2.45v.426H5.643v1.346h1.853v.426H5.642v1.392H7.61v.426H5.159zM3.62 14.548h-.03l-.339.673-.96 1.75-.961-1.75-.34-.673H.962v3.383H.49v-4.016h.644l1.15 2.163h.03l1.156-2.163h.621v4.016H3.62v-3.383z" fill="#E8F1FB"/><g clip-path="url(#clip0_2049_146)" fill="#E8F1FB"><path d="M44.998 0H37.96v1.882h2.614v8.127h1.851V3.371l-1.307-1.498h3.887L44.998 0zm-8.625 2.74L34.039-.004h-3.033L29.372 1.93l-.666.779V10h1.8V7.085h4.067V10h1.8V8.07l-1.388-1.39 1.388-1.254V2.74zm-5.867-.778h4.067V5.42h-4.067V1.962zm-5.738 6.163V1.863L22.978 0H21.21v1.8h1.768v6.33H21.21v1.882h5.333V8.13l-1.775-.005zM16.45 10h-3.22l-2.147-2.91V0h1.85v8.182h3.823V0h1.85v7.09L16.464 10m-8.061 0V8.118H1.786V6.001h4.472l2.86-2.91V.001H.537v1.881h6.792V4.19H2.682L0 6.916v3.091L8.403 10z"/></g></symbol><symbol id="zvirt" viewBox="0 0 45 10"><g clip-path="url(#clip0_49_66)" fill="#E8F1FB"><path d="M44.998 0H37.96v1.817h2.614v7.847h1.851v-6.41l-1.307-1.446h3.887L44.998 0zm-8.625 2.646l-2.334-2.65h-3.033l-1.634 1.866-.666.752v7.041h1.8V6.841h4.067v2.814h1.8V7.79l-1.388-1.342 1.388-1.21V2.645zm-5.867-.752h4.067v3.339h-4.067V1.894zm-5.738 5.951V1.799L22.978 0H21.21v1.738h1.768V7.85H21.21v1.817h5.333V7.85l-1.775-.005zm-8.319 1.81h-3.218l-2.147-2.81V0h1.85v7.9h3.823V0h1.85v6.846l-2.144 2.81m-8.06-.001V7.838H1.786V5.794h4.472l2.86-2.81V0H.537v1.817h6.792v2.228H2.681L0 6.678v2.984l8.403-.007z"/></g></symbol></svg>