<svg width="80" height="10" viewBox="0 0 80 10" fill="none" xmlns="http://www.w3.org/2000/svg">
<g clip-path="url(#clip0_231_355)">
<path d="M25.4811 2.58515L22.9562 0H19.8335L18.1086 1.81574L17.3382 2.54884V6.86121L19.8381 9.63702H23.0198L25.4788 6.93157L25.4811 2.58515ZM19.1495 7.88483V1.75673H23.6698V7.88483H19.1495Z" fill="#E8F1FB"/>
<path d="M80 3.54296V0.00454712H78.1864L78.2001 3.92653H73.9434V0.00454712H72.132V9.65518H73.9434V5.66737H78.191V9.65518H80V6.09407L78.625 4.81851L80 3.54296Z" fill="#E8F1FB"/>
<path d="M-7.62939e-06 7.55168V2.12037L2.82037 0.0050354H7.80886V1.82077H1.8113V7.85355H7.80886V9.66928H2.809L-7.62939e-06 7.55168Z" fill="#E8F1FB"/>
<path d="M33.4764 7.83944H29.0379V0.00454712H27.2197V6.84306L29.3242 9.64837H33.4696V7.83263" fill="#E8F1FB"/>
<path d="M35.2877 0.00454712H33.4763V7.83945H35.2877V0.00454712Z" fill="#E8F1FB"/>
<path d="M42.8488 9.65744L45.3237 6.8544V2.62147L42.8011 0H37.2717V7.88483V9.66652H42.8488M39.0739 7.85079V1.75672H43.5124V7.83263" fill="#E8F1FB"/>
<path d="M48.71 7.8349V0H46.9077L46.8964 7.54665L49.7077 9.65063H53.9325V7.8349H48.71Z" fill="#E8F1FB"/>
<path d="M59.0097 7.84623V1.80664L57.2416 0.00906372H55.5053V1.74082H57.2416V7.84623H55.5053V9.66196H60.7438V7.84623H59.0097Z" fill="#E8F1FB"/>
<path d="M67.7389 0.00680542H64.364V1.818H62.5527V9.65517H64.364V1.818H68.5139V9.65517H70.323L70.3252 2.72133L67.7389 0.00680542Z" fill="#E8F1FB"/>
<path d="M11.2724 7.83717V0.00454712H9.47022L9.46113 7.5512L12.2701 9.65518H16.495V7.83717H11.2724Z" fill="#E8F1FB"/>
</g>
<defs>
<clipPath id="clip0_231_355">
<rect width="80" height="10" fill="white"/>
</clipPath>
</defs>
</svg>
