<svg width="90" height="10" viewBox="0 0 90 10" fill="none" xmlns="http://www.w3.org/2000/svg">
<path d="M36.9412 2.51113V10H38.7545V6.97418H42.717V10H44.4639V8.05521L43.1209 6.54497L44.4639 5.32146V2.51113H44.4706L42.1818 0H39.1933M38.7579 1.94301H42.7204V5.31612H38.7579V1.94301Z" fill="#E8F1FB"/>
<path d="M51.8666 10L54.2353 7.11131V2.7195L51.7851 0H46.4706V10H51.8683H51.8666ZM48.2271 8.1211V1.82547H52.5037V8.1211" fill="#E8F1FB"/>
<path d="M56.2353 2.5271V10H58.0495V6.98063H62.0137V10H63.7614V8.05936L62.4178 6.55234L63.7614 5.33144V2.5271H63.7647L61.4799 0H58.4901M58.0511 1.93887H62.0154V5.32788H58.0511V1.93887Z" fill="#E8F1FB"/>
<path d="M69.6223 8.12177V1.88891L67.9071 0H66.2353V1.78209H67.9071V8.12533H66.2353V10H71.2941V8.12533H69.6223L69.6257 8.12177H69.6223Z" fill="#E8F1FB"/>
<path d="M78.1659 9.88235H75.0321L72.9412 6.96064V0H74.7424V7.95981H78.4292V0H80.2353V6.96064L78.1626 9.88235H78.1659Z" fill="#E8F1FB"/>
<path d="M84.5034 0L82.3529 2.73553V7.29653L84.5034 10H89.5294V8.13001H84.0776V5.94835H88.9458V4.07836H84.0776V1.86643H89.5097V0" fill="#E8F1FB"/>
<path d="M29.7975 0L27.6471 2.70347V7.26447L29.7975 10H34.8235V8.13001H29.3717V5.91808H34.2399V4.04809H29.3717V1.86643H34.8038V0" fill="#E8F1FB"/>
<path d="M18.5882 0V9.88235H20.3014V6.9989H24.1692L25.8823 5.3492V2.72307L23.6626 0.003525M24.1692 5.32452H20.3014V1.69905H24.1692V5.32452Z" fill="#E8F1FB"/>
<path d="M5.9902 0V4.06822H1.77616V0.00355303H0V10H1.77616V5.93001H5.9902V9.99822H7.76471V0H5.9902Z" fill="#E8F1FB"/>
<path d="M12.2839 10H14.069V6.99804L16.9412 4.79637V0H15.1278V5.34412H11.2285L11.2202 0H9.41177V4.79637L12.2839 6.99627" fill="#E8F1FB"/>
</svg>
