<svg width="37" height="10" viewBox="0 0 37 10" fill="none" xmlns="http://www.w3.org/2000/svg">
<g clip-path="url(#clip0_231_366)">
<path d="M25.2303 9.64836H22.0171L19.8756 6.84239V0H21.7237V7.89349H25.5399V0H27.3879V6.84239L25.2442 9.64836" fill="#E8F1FB"/>
<path d="M17.949 2.58576L15.3941 0H12.2063L10.4553 1.81616L9.67215 2.54944V6.86282L12.2132 9.63928H15.4473L17.949 6.95817V2.58576ZM11.5133 7.89349V1.76395H16.1056V7.89349H11.5133Z" fill="#E8F1FB"/>
<path d="M5.27152 0.00289917H1.84111V1.81225H0V9.65353H1.84111V1.81452H6.05925V9.65353H7.89805L7.90036 2.71579L5.27152 0.00289917Z" fill="#E8F1FB"/>
<path d="M34.7315 0H31.6268L29.3676 2.61981V9.65744H31.2157V7.90258H35.1658V9.65744H37.0139V2.62889L34.7315 0ZM31.2087 6.12955V1.75713H35.1589V6.13636L31.2087 6.12955Z" fill="#E8F1FB"/>
</g>
<defs>
<clipPath id="clip0_231_366">
<rect width="37" height="10" fill="white"/>
</clipPath>
</defs>
</svg>
