<svg width="40" height="19" viewBox="0 0 40 19" fill="none" xmlns="http://www.w3.org/2000/svg">
<g clip-path="url(#clip0_427_992)">
<path d="M27.276 10.1746H23.8022L21.4872 7.21561V0H23.485V8.32405H27.6106V0H29.6085V7.21561L27.291 10.1746" fill="#E8F1FB"/>
<path d="M19.4043 2.7268L16.6423 0H13.1959L11.303 1.91523L10.4564 2.6885V7.23716L13.2034 10.1651H16.6997L19.4043 7.33771V2.7268ZM12.4467 8.32405V1.86016H17.4115V8.32405H12.4467Z" fill="#E8F1FB"/>
<path d="M5.69894 0.00244141H1.99039V1.91049H0V10.1795H1.99039V1.91288H6.55054V10.1795H8.53843L8.54093 2.86331L5.69894 0.00244141Z" fill="#E8F1FB"/>
<path d="M37.5476 0H34.1912L31.7487 2.76271V10.1842H33.7466V8.33363H38.0171V10.1842H40.015V2.77229L37.5476 0ZM33.7391 6.46389V1.85298H38.0096V6.47107L33.7391 6.46389Z" fill="#E8F1FB"/>
</g>
<path d="M3.83148 18.6048V14.3862H6.41387V14.8335H4.34069V16.2477H6.29263V16.695H4.34069V18.1576H6.41387V18.6048H3.83148Z" fill="#E8F1FB"/>
<path d="M1.4973 18.677C1.15379 18.677 0.860797 18.6125 0.618319 18.4836C0.375841 18.3506 0.169735 18.1693 0 17.9396L0.375841 17.6254C0.525369 17.8228 0.691062 17.9739 0.872921 18.0787C1.05478 18.1794 1.26897 18.2297 1.51549 18.2297C1.81858 18.2297 2.04894 18.1572 2.20655 18.0122C2.3682 17.8671 2.44903 17.6737 2.44903 17.432C2.44903 17.2305 2.38841 17.0754 2.26717 16.9666C2.14593 16.8578 1.94589 16.7712 1.66704 16.7067L1.3215 16.6281C0.93354 16.5395 0.636505 16.4065 0.430398 16.2292C0.228333 16.0479 0.127301 15.7941 0.127301 15.4677C0.127301 15.2824 0.161652 15.1172 0.230354 14.9721C0.299056 14.8271 0.394027 14.7062 0.515266 14.6095C0.640546 14.5128 0.788053 14.4403 0.957788 14.3919C1.13156 14.3395 1.3215 14.3134 1.52761 14.3134C1.84687 14.3134 2.11966 14.3718 2.34597 14.4886C2.57633 14.6055 2.77031 14.7767 2.92792 15.0023L2.54602 15.2804C2.42882 15.1192 2.28738 14.9923 2.12168 14.8996C1.95599 14.8069 1.74988 14.7606 1.50336 14.7606C1.2326 14.7606 1.01841 14.819 0.860797 14.9359C0.707227 15.0487 0.630443 15.2199 0.630443 15.4496C0.630443 15.6511 0.695104 15.8042 0.824425 15.9089C0.957788 16.0097 1.15783 16.0902 1.42456 16.1507L1.77009 16.2292C2.18634 16.3219 2.48742 16.4629 2.67332 16.6523C2.85922 16.8417 2.95217 17.0935 2.95217 17.4078C2.95217 17.6012 2.91782 17.7765 2.84912 17.9336C2.78446 18.0907 2.68948 18.2237 2.5642 18.3325C2.43892 18.4413 2.28535 18.5259 2.1035 18.5863C1.92568 18.6468 1.72361 18.677 1.4973 18.677Z" fill="#E8F1FB"/>
<defs>
<clipPath id="clip0_427_992">
<rect width="39.6996" height="10.2594" fill="white" transform="translate(0.300385)"/>
</clipPath>
</defs>
</svg>
