<svg width="40" height="18" viewBox="0 0 40 18" fill="none" xmlns="http://www.w3.org/2000/svg">
<path d="M3.18 18L2.76 16.764H1.068L0.648 18H0.138L1.602 13.812H2.244L3.708 18H3.18ZM1.926 14.28H1.896L1.188 16.32H2.634L1.926 14.28ZM4.20375 18V17.58H4.79175V14.232H4.20375V13.812H5.88375V14.232H5.29575V17.58H5.88375V18H4.20375Z" fill="#E8F1FB"/>
<g clip-path="url(#clip0_2050_147)">
<path d="M27.276 10.1746H23.8022L21.4872 7.21561V0H23.485V8.32405H27.6106V0H29.6085V7.21561L27.291 10.1746" fill="#E8F1FB"/>
<path d="M19.4043 2.7268L16.6423 0H13.1959L11.303 1.91523L10.4564 2.6885V7.23716L13.2034 10.1651H16.6997L19.4043 7.33771V2.7268ZM12.4467 8.32405V1.86016H17.4115V8.32405H12.4467Z" fill="#E8F1FB"/>
<path d="M5.69894 0.00244141H1.99039V1.91049H0V10.1795H1.99039V1.91288H6.55054V10.1795H8.53843L8.54093 2.86331L5.69894 0.00244141Z" fill="#E8F1FB"/>
<path d="M37.5476 0H34.1912L31.7487 2.76271V10.1842H33.7466V8.33363H38.0171V10.1842H40.015V2.77229L37.5476 0ZM33.7391 6.46389V1.85298H38.0096V6.47107L33.7391 6.46389Z" fill="#E8F1FB"/>
</g>
<defs>
<clipPath id="clip0_2050_147">
<rect width="40" height="10.2594" fill="white"/>
</clipPath>
</defs>
</svg>
