<svg width="84" height="11" viewBox="0 0 84 11" fill="none" xmlns="http://www.w3.org/2000/svg">
<path d="M54.1031 0H50.9317L48.624 2.74037V10.048H50.5117L50.5212 8.15085H54.5264V10.048H56.4236V2.74037L54.1031 0ZM50.5212 6.3942V1.89718H54.5264V6.3942H50.5212Z" fill="#E8F1FB"/>
<path d="M83.757 0H76.5899V1.89718H79.2591V10.048H81.1572V3.37277L79.8221 1.89718H83.757V0Z" fill="#E8F1FB"/>
<path d="M5.55102 4.07543H1.82692L1.82692 1.89718H7.58873L7.58873 0H2.59984L0 2.24851V3.65383L1.794 5.22847L2.52958 5.97261H6.32394L6.32394 8.15085H0.562128L0.562128 10.048H5.55102L8.15086 7.72926L8.15086 6.38342" fill="#E8F1FB"/>
<path d="M36.8193 2.74037L34.4289 0H31.305L29.6337 1.94106L28.9495 2.74037V10.048H30.8467L30.8467 7.09686H34.9912L34.9912 10.048H36.8193V8.15085L35.414 6.67527L36.8193 5.48075L36.8193 2.74037ZM30.8467 1.89718H34.9912L34.9912 5.48075H30.8467L30.8467 1.89718Z" fill="#E8F1FB"/>
<path d="M24.4509 0H21.2796L18.9718 2.74037V10.048H20.8595L20.869 8.15085H24.8742V10.048H26.7714V2.74037L24.4509 0ZM20.869 6.3942V1.89718H24.8742V6.3942H20.869Z" fill="#E8F1FB"/>
<path d="M44.34 10.048H41.0512L38.8571 7.16713V0H40.7485V8.15085H44.6189V0H46.5161V7.16713L44.34 10.048Z" fill="#E8F1FB"/>
<path d="M17.2151 0H10.048V1.89718H12.7172V10.048H14.6153V3.37277L13.2802 1.89718H17.2151V0Z" fill="#E8F1FB"/>
<path d="M71.1795 8.15085V0H69.2941L69.2823 7.86979L72.1632 10.048H76.59V8.15085H71.1795Z" fill="#E8F1FB"/>
<path d="M65.2772 8.15085H60.6396V0H58.7424V7.16713L60.9322 10.048H65.2772V8.15085Z" fill="#E8F1FB"/>
<path d="M67.1744 0H65.2773V8.15085H67.1744V0Z" fill="#E8F1FB"/>
</svg>
