<svg width="56" height="10" viewBox="0 0 56 10" fill="none" xmlns="http://www.w3.org/2000/svg">
<g clip-path="url(#clip0_427_1073)">
<path d="M55.9977 0H48.8198V1.87926H51.4861V9.99765H53.3738V3.36858L52.0406 1.87222H56.0047L55.9977 0Z" fill="#E8F1FB"/>
<path d="M26.6185 2.75308L24.2447 0.0117188H21.1442L19.4784 1.9403L18.7988 2.72019V10.0023H20.6346V7.08712H24.7827V9.99761H26.6185V8.06668L25.1886 6.68072L26.6161 5.42868L26.6185 2.75308ZM20.6346 1.97554H24.7827V5.42868H20.6346V1.97554Z" fill="#E8F1FB"/>
<path d="M37.4678 0.0141602H35.3914V1.88872H38.2701V9.99772H40.1483L40.1507 2.8213L37.4678 0.0141602Z" fill="#E8F1FB"/>
<path d="M30.887 0.0141602V1.88872H33.7657V9.99772H35.6439L35.6462 2.8213L32.9634 0.0141602H30.887Z" fill="#E8F1FB"/>
<path d="M30.8752 1.90039H28.9946V9.99764H30.8752V1.90039Z" fill="#E8F1FB"/>
<path d="M46.1629 8.1137V1.86048L44.3272 0H42.5244V1.79469H44.3272V8.1137H42.5244V9.99296H47.9633V8.1137H46.1629Z" fill="#E8F1FB"/>
<path d="M7.17785 0H0V1.87926H2.66633V9.99765H4.554V3.36858L3.22083 1.87222H7.18493L7.17785 0Z" fill="#E8F1FB"/>
<path d="M10.7739 8.1137V5.92906H16.0829V4.05685H10.7739V1.87221H16.6964V0H10.7739H8.89328H11.2387L8.89328 2.70848V7.27743L11.2387 9.98591H16.72V8.1137H10.7739Z" fill="#E8F1FB"/>
</g>
<defs>
<clipPath id="clip0_427_1073">
<rect width="56" height="10" fill="white"/>
</clipPath>
</defs>
</svg>
