<svg width="45" height="19" viewBox="0 0 45 19" fill="none" xmlns="http://www.w3.org/2000/svg">
<g clip-path="url(#clip0_427_947)">
<path d="M44.9977 0H37.96V1.81702H40.5743V9.66426H42.4251V3.25473L41.1179 1.80793H45.0046L44.9977 0Z" fill="#E8F1FB"/>
<path d="M36.3729 2.64581L34.0386 -0.00476074H31.0056L29.3723 1.86222L28.706 2.61401V9.65495H30.5059V6.84085H34.573V9.65495H36.3729V7.79024L34.9848 6.44792L36.3729 5.23733V2.64581ZM30.5059 1.89402H34.573V5.23279H30.5059V1.89402Z" fill="#E8F1FB"/>
<path d="M24.7684 7.84497V1.79885L22.9777 0H21.2102V1.73752H22.9777V7.84951H21.2102V9.66653H26.5429V7.84951L24.7684 7.84497Z" fill="#E8F1FB"/>
<path d="M16.449 9.65517H13.2309L11.084 6.84561V0H12.9348V7.89948H16.7567V0H18.6075V6.84561L16.4629 9.65517" fill="#E8F1FB"/>
<path d="M8.40265 9.65517V7.83815H1.78602V5.79401H6.25803L9.11752 2.98445V0H0.536728V1.81702H7.32918V4.04513H2.68135L-7.62939e-06 6.67753V9.66198L8.40265 9.65517Z" fill="#E8F1FB"/>
<path d="M3.21298 14.1867H3.18345L2.83498 14.8658L1.84865 16.6306L0.862308 14.8658L0.513841 14.1867H0.48431V17.6H0V13.5481H0.661497L1.84274 15.7308H1.87227L3.05942 13.5481H3.69729V17.6H3.21298V14.1867Z" fill="#E8F1FB"/>
<path d="M7.37405 17.6L6.96062 16.4042H5.29506L4.88163 17.6H4.3796L5.82072 13.5481H6.45268L7.8938 17.6H7.37405ZM6.13965 14.0009H6.11012L5.41319 15.9746H6.83659L6.13965 14.0009Z" fill="#E8F1FB"/>
<path d="M11.535 17.6H10.9385L9.85766 15.8991H9.84585L8.76501 17.6H8.19802L9.54463 15.5392L8.23345 13.5481H8.82998L9.86357 15.1619H9.87538L10.9326 13.5481H11.4996L10.1766 15.5218L11.535 17.6Z" fill="#E8F1FB"/>
</g>
<defs>
<clipPath id="clip0_427_947">
<rect width="45" height="19" fill="white"/>
</clipPath>
</defs>
</svg>
