<svg width="45" height="18" viewBox="0 0 45 18" fill="none" xmlns="http://www.w3.org/2000/svg">
<path d="M22.49 18C22.1639 18 21.8859 17.9387 21.6557 17.8159C21.4256 17.6894 21.23 17.5168 21.0689 17.2981L21.4256 16.999C21.5675 17.1869 21.7248 17.3307 21.8974 17.4305C22.07 17.5264 22.2733 17.5743 22.5072 17.5743C22.7949 17.5743 23.0135 17.5053 23.1631 17.3672C23.3165 17.2291 23.3932 17.045 23.3932 16.8149C23.3932 16.6231 23.3357 16.4754 23.2206 16.3719C23.1056 16.2683 22.9157 16.1858 22.6511 16.1245L22.3231 16.0497C21.9549 15.9653 21.673 15.8387 21.4774 15.67C21.2856 15.4974 21.1897 15.2557 21.1897 14.9451C21.1897 14.7686 21.2223 14.6114 21.2875 14.4733C21.3527 14.3352 21.4429 14.2202 21.5579 14.1281C21.6768 14.036 21.8168 13.967 21.9779 13.921C22.1428 13.8711 22.3231 13.8462 22.5187 13.8462C22.8217 13.8462 23.0806 13.9018 23.2954 14.013C23.514 14.1243 23.6981 14.2873 23.8477 14.5021L23.4853 14.7667C23.374 14.6133 23.2398 14.4925 23.0825 14.4043C22.9253 14.316 22.7297 14.2719 22.4957 14.2719C22.2387 14.2719 22.0355 14.3275 21.8859 14.4388C21.7401 14.5462 21.6672 14.7092 21.6672 14.9278C21.6672 15.1196 21.7286 15.2653 21.8514 15.365C21.9779 15.4609 22.1678 15.5376 22.4209 15.5952L22.7489 15.67C23.1439 15.7582 23.4297 15.8924 23.6061 16.0727C23.7825 16.253 23.8707 16.4927 23.8707 16.7919C23.8707 16.976 23.8381 17.1428 23.7729 17.2924C23.7116 17.442 23.6214 17.5685 23.5025 17.6721C23.3836 17.7757 23.2379 17.8562 23.0653 17.9137C22.8965 17.9713 22.7047 18 22.49 18Z" fill="#E8F1FB"/>
<path d="M19.2043 18C18.6942 18 18.2972 17.8274 18.0134 17.4822C17.7296 17.1332 17.5876 16.6212 17.5876 15.9461C17.5876 15.2711 17.7296 14.7533 18.0134 14.3928C18.2972 14.0284 18.6942 13.8462 19.2043 13.8462C19.5418 13.8462 19.8237 13.9229 20.05 14.0763C20.2802 14.2297 20.4585 14.4464 20.5851 14.7264L20.1939 14.9623C20.1133 14.7552 19.9906 14.5903 19.8257 14.4675C19.6607 14.341 19.4536 14.2777 19.2043 14.2777C19.0317 14.2777 18.8764 14.3103 18.7383 14.3755C18.6041 14.4407 18.489 14.5347 18.3931 14.6574C18.301 14.7763 18.2301 14.9201 18.1802 15.0889C18.1304 15.2538 18.1054 15.4398 18.1054 15.647V16.2453C18.1054 16.6595 18.2013 16.9836 18.3931 17.2176C18.5849 17.4516 18.8553 17.5685 19.2043 17.5685C19.4613 17.5685 19.6761 17.5033 19.8487 17.3729C20.0213 17.2387 20.1478 17.0623 20.2284 16.8436L20.6139 17.0853C20.4873 17.3691 20.3051 17.5935 20.0673 17.7584C19.8295 17.9195 19.5418 18 19.2043 18Z" fill="#E8F1FB"/>
<path d="M15.2956 17.9311V17.5283H15.8594V14.318H15.2956V13.9153H16.9065V14.318H16.3427V17.5283H16.9065V17.9311H15.2956Z" fill="#E8F1FB"/>
<path d="M12.2887 17.9311H11.8054V13.9153H13.4048C13.7577 13.9153 14.0319 14.0131 14.2275 14.2087C14.427 14.4043 14.5267 14.6862 14.5267 15.0544C14.5267 15.3498 14.4576 15.5933 14.3196 15.7851C14.1853 15.973 13.9859 16.0977 13.7212 16.159L14.6417 17.9311H14.0952L13.2264 16.2051H12.2887V17.9311ZM13.4048 15.7908C13.5966 15.7908 13.7442 15.741 13.8478 15.6413C13.9552 15.5415 14.0089 15.3996 14.0089 15.2155V14.9163C14.0089 14.7322 13.9552 14.5903 13.8478 14.4906C13.7442 14.3909 13.5966 14.341 13.4048 14.341H12.2887V15.7908H13.4048Z" fill="#E8F1FB"/>
<path d="M9.86502 14.341V17.9311H9.38174V14.341H8.10452V13.9153H11.1422V14.341H9.86502Z" fill="#E8F1FB"/>
<path d="M5.15881 17.9311V13.9153H7.6097V14.341H5.64209V15.6873H7.49463V16.113H5.64209V17.5053H7.6097V17.9311H5.15881Z" fill="#E8F1FB"/>
<path d="M3.61967 14.5481H3.5909L3.25146 15.2213L2.29067 16.9703L1.32987 15.2213L0.990432 14.5481H0.961665V17.9311H0.489899V13.9153H1.13426L2.28491 16.0785H2.31368L3.47008 13.9153H4.09143V17.9311H3.61967V14.5481Z" fill="#E8F1FB"/>
<g clip-path="url(#clip0_2049_146)">
<path d="M44.9977 0H37.96V1.88191H40.5743V10.0094H42.4251V3.37097L41.118 1.8725H45.0046L44.9977 0Z" fill="#E8F1FB"/>
<path d="M36.3729 2.7406L34.0386 -0.00463867H31.0056L29.3723 1.92902L28.706 2.70766V10.0001H30.5059V7.08546H34.573V10.0001H36.3729V8.06876L34.9848 6.6785L36.3729 5.42467V2.7406ZM30.5059 1.96196H34.573V5.41997H30.5059V1.96196Z" fill="#E8F1FB"/>
<path d="M24.7684 8.12515V1.86309L22.9778 0H21.2102V1.79958H22.9778V8.12985H21.2102V10.0118H26.5429V8.12985L24.7684 8.12515Z" fill="#E8F1FB"/>
<path d="M16.4491 10H13.231L11.084 7.0901V0H12.9349V8.18161H16.7568V0H18.6076V7.0901L16.4629 10" fill="#E8F1FB"/>
<path d="M8.40287 10.0001V8.11821H1.78624V6.00106H6.25825L9.11774 3.09116V0.00012207H0.536949V1.88203H7.3294V4.18972H2.68157L0.000213623 6.91614V10.0072L8.40287 10.0001Z" fill="#E8F1FB"/>
</g>
<defs>
<clipPath id="clip0_2049_146">
<rect width="45" height="10" fill="white"/>
</clipPath>
</defs>
</svg>
