<svg width="45" height="19" viewBox="0 0 45 19" fill="none" xmlns="http://www.w3.org/2000/svg">
<g clip-path="url(#clip0_427_845)">
<path d="M44.9977 0H37.96V1.81702H40.5743V9.66426H42.4251V3.25473L41.1179 1.80793H45.0046L44.9977 0Z" fill="#E8F1FB"/>
<path d="M36.3729 2.64581L34.0386 -0.00476074H31.0056L29.3723 1.86222L28.706 2.61401V9.65495H30.5059V6.84085H34.573V9.65495H36.3729V7.79024L34.9848 6.44792L36.3729 5.23733V2.64581ZM30.5059 1.89402H34.573V5.23279H30.5059V1.89402Z" fill="#E8F1FB"/>
<path d="M24.7684 7.84497V1.79885L22.9777 0H21.2102V1.73752H22.9777V7.84951H21.2102V9.66653H26.5429V7.84951L24.7684 7.84497Z" fill="#E8F1FB"/>
<path d="M16.449 9.65517H13.2309L11.084 6.84561V0H12.9348V7.89948H16.7567V0H18.6075V6.84561L16.4629 9.65517" fill="#E8F1FB"/>
<path d="M8.40265 9.65517V7.83815H1.78602V5.79401H6.25803L9.11752 2.98445V0H0.536728V1.81702H7.32918V4.04513H2.68135L-7.62939e-06 6.67753V9.66198L8.40265 9.65517Z" fill="#E8F1FB"/>
<path d="M32.6474 17.5215H32.1642V13.2019H33.7633C34.1161 13.2019 34.3903 13.3071 34.5859 13.5175C34.7853 13.7279 34.885 14.0312 34.885 14.4272C34.885 14.7449 34.8159 15.0069 34.6779 15.2132C34.5437 15.4153 34.3443 15.5494 34.0797 15.6154L35 17.5215H34.4536L33.585 15.6649H32.6474V17.5215ZM33.7633 15.2194C33.955 15.2194 34.1027 15.1657 34.2062 15.0584C34.3136 14.9512 34.3673 14.7985 34.3673 14.6005V14.2787C34.3673 14.0807 34.3136 13.928 34.2062 13.8208C34.1027 13.7135 33.955 13.6599 33.7633 13.6599H32.6474V15.2194H33.7633Z" fill="#E8F1FB"/>
<path d="M28.8108 17.5215V13.2019H31.2611V13.6599H29.2939V15.108H31.1461V15.5659H29.2939V17.0635H31.2611V17.5215H28.8108Z" fill="#E8F1FB"/>
<path d="M27.4112 16.8903H27.394C27.3441 17.0924 27.2214 17.2616 27.0258 17.3977C26.8341 17.5298 26.5849 17.5958 26.2781 17.5958C26.0327 17.5958 25.8064 17.5483 25.5993 17.4534C25.3961 17.3544 25.2216 17.2121 25.0759 17.0264C24.9302 16.8366 24.8151 16.6036 24.7308 16.3271C24.6503 16.0466 24.61 15.7248 24.61 15.3617C24.61 15.0028 24.6503 14.6851 24.7308 14.4087C24.8113 14.1282 24.9263 13.8951 25.0759 13.7094C25.2255 13.5196 25.4057 13.3752 25.6166 13.2762C25.8275 13.1772 26.0614 13.1277 26.3183 13.1277C26.6788 13.1277 26.9798 13.2143 27.2214 13.3876C27.463 13.5609 27.649 13.7899 27.7794 14.0745L27.3825 14.3344C27.2904 14.1034 27.1524 13.9219 26.9683 13.7899C26.7881 13.6578 26.5714 13.5918 26.3183 13.5918C26.1419 13.5918 25.9809 13.6269 25.8352 13.697C25.6895 13.763 25.5629 13.8579 25.4555 13.9817C25.352 14.1055 25.2715 14.254 25.2139 14.4273C25.1564 14.6005 25.1277 14.7945 25.1277 15.009V15.7083C25.1277 15.9228 25.1564 16.1188 25.2139 16.2962C25.2715 16.4695 25.352 16.618 25.4555 16.7418C25.5629 16.8655 25.6933 16.9625 25.8467 17.0326C26.0001 17.0986 26.1726 17.1316 26.3644 17.1316C26.5024 17.1316 26.6328 17.1131 26.7555 17.0759C26.882 17.0347 26.9913 16.9749 27.0834 16.8965C27.1792 16.8181 27.254 16.7211 27.3077 16.6056C27.3614 16.486 27.3882 16.3457 27.3882 16.1848V15.7578H26.5024V15.2998H27.8599V17.5215H27.4112V16.8903Z" fill="#E8F1FB"/>
<path d="M23.7243 17.5215L23.3216 16.2466H21.6996L21.2969 17.5215H20.808L22.2115 13.2019H22.827L24.2305 17.5215H23.7243ZM22.5221 13.6846H22.4933L21.8146 15.7887H23.2008L22.5221 13.6846Z" fill="#E8F1FB"/>
<path d="M18.1159 14.8852L17.6327 13.926H17.6154V17.5215H17.1438V13.2019H17.7017L19.1685 15.8382L19.6517 16.7974H19.6689V13.2019H20.1406V17.5215H19.5826L18.1159 14.8852Z" fill="#E8F1FB"/>
<path d="M15.9725 17.5215L15.5699 16.2466H13.9478L13.5452 17.5215H13.0562L14.4597 13.2019H15.0752L16.4787 17.5215H15.9725ZM14.7703 13.6846H14.7416L14.0628 15.7887H15.4491L14.7703 13.6846Z" fill="#E8F1FB"/>
<path d="M11.9201 13.8826H11.8913L11.5519 14.6067L10.5913 16.488L9.63075 14.6067L9.29138 13.8826H9.26262V17.5215H8.79095V13.2019H9.43518L10.5856 15.5288H10.6144L11.7705 13.2019H12.3917V17.5215H11.9201V13.8826Z" fill="#E8F1FB"/>
<path d="M5.27402 17.5958C4.76401 17.5958 4.36712 17.4101 4.08335 17.0388C3.79958 16.6634 3.6577 16.1126 3.6577 15.3865C3.6577 14.6604 3.79958 14.1034 4.08335 13.7156C4.36712 13.3237 4.76401 13.1277 5.27402 13.1277C5.61148 13.1277 5.89333 13.2102 6.11957 13.3752C6.34966 13.5403 6.52797 13.7734 6.65451 14.0745L6.26337 14.3283C6.18285 14.1055 6.06014 13.9281 5.89524 13.796C5.73035 13.6599 5.52328 13.5918 5.27402 13.5918C5.10146 13.5918 4.94616 13.6269 4.80811 13.697C4.67389 13.7672 4.55885 13.8682 4.46299 14.0003C4.37095 14.1282 4.30001 14.2829 4.25016 14.4644C4.20031 14.6418 4.17538 14.8419 4.17538 15.0647V15.7083C4.17538 16.1539 4.27125 16.5025 4.46299 16.7541C4.65472 17.0058 4.92507 17.1316 5.27402 17.1316C5.53095 17.1316 5.74569 17.0615 5.91825 16.9212C6.09081 16.7768 6.21736 16.587 6.29789 16.3519L6.68327 16.6118C6.55673 16.9171 6.37458 17.1585 6.13683 17.3359C5.89908 17.5091 5.61148 17.5958 5.27402 17.5958Z" fill="#E8F1FB"/>
<path d="M0 13.2019H1.34598C1.59523 13.2019 1.82148 13.2473 2.02472 13.3381C2.22796 13.4288 2.40052 13.565 2.5424 13.7465C2.68812 13.9239 2.79933 14.1487 2.87602 14.421C2.95272 14.6892 2.99106 15.0028 2.99106 15.3617C2.99106 15.7206 2.95272 16.0362 2.87602 16.3085C2.79933 16.5767 2.68812 16.8015 2.5424 16.9831C2.40052 17.1605 2.22796 17.2946 2.02472 17.3853C1.82148 17.4761 1.59523 17.5215 1.34598 17.5215H0V13.2019ZM1.34598 17.0635C1.51087 17.0635 1.66234 17.0346 1.80039 16.9769C1.93844 16.915 2.05731 16.8263 2.15702 16.7108C2.25672 16.5953 2.33341 16.455 2.3871 16.29C2.44462 16.1208 2.47338 15.929 2.47338 15.7144V15.0089C2.47338 14.7944 2.44462 14.6046 2.3871 14.4396C2.33341 14.2704 2.25672 14.1281 2.15702 14.0126C2.05731 13.8971 1.93844 13.8104 1.80039 13.7527C1.66234 13.6908 1.51087 13.6599 1.34598 13.6599H0.483172V17.0635H1.34598Z" fill="#E8F1FB"/>
</g>
<defs>
<clipPath id="clip0_427_845">
<rect width="45" height="19" fill="white"/>
</clipPath>
</defs>
</svg>
