<svg width="45" height="10" viewBox="0 0 45 10" fill="none" xmlns="http://www.w3.org/2000/svg">
<g clip-path="url(#clip0_49_66)">
<path d="M44.9977 0H37.96V1.81702H40.5743V9.66426H42.4251V3.25473L41.1179 1.80793H45.0046L44.9977 0Z" fill="#E8F1FB"/>
<path d="M36.3729 2.64587L34.0386 -0.00469971H31.0056L29.3723 1.86229L28.706 2.61408V9.65501H30.5059V6.84091H34.573V9.65501H36.3729V7.7903L34.9848 6.44798L36.3729 5.23739V2.64587ZM30.5059 1.89408H34.573V5.23285H30.5059V1.89408Z" fill="#E8F1FB"/>
<path d="M24.7684 7.84497V1.79885L22.9777 0H21.2102V1.73752H22.9777V7.84951H21.2102V9.66653H26.5429V7.84951L24.7684 7.84497Z" fill="#E8F1FB"/>
<path d="M16.449 9.65517H13.2309L11.084 6.84561V0H12.9348V7.89948H16.7567V0H18.6075V6.84561L16.4629 9.65517" fill="#E8F1FB"/>
<path d="M8.40265 9.65517V7.83815H1.78602V5.79401H6.25803L9.11752 2.98445V0H0.536728V1.81702H7.32918V4.04513H2.68135L-7.62939e-06 6.67753V9.66198L8.40265 9.65517Z" fill="#E8F1FB"/>
</g>
<defs>
<clipPath id="clip0_49_66">
<rect width="45" height="10" fill="white"/>
</clipPath>
</defs>
</svg>
